<?xml version="1.0" encoding="UTF-8"?>
<!DOCTYPE svg PUBLIC "-//W3C//DTD SVG 1.1//EN" "http://www.w3.org/Graphics/SVG/1.1/DTD/svg11.dtd">
<!-- Creator: CorelDRAW -->
<svg xmlns="http://www.w3.org/2000/svg" xml:space="preserve" width="300px" height="300px" style="shape-rendering:geometricPrecision; text-rendering:geometricPrecision; image-rendering:optimizeQuality; fill-rule:evenodd; clip-rule:evenodd"
viewBox="0 0 35.0553 35.6672"
 xmlns:xlink="http://www.w3.org/1999/xlink">
 <defs>
  <style type="text/css">
   <![CDATA[
    .str0 {stroke:#1F1A17;stroke-width:1.90455;stroke-linecap:round;stroke-linejoin:round}
    .fil0 {fill:white}
    .fil1 {fill:#1F1A17;fill-rule:nonzero}
   ]]>
  </style>
 </defs>
 <g id="Слой_x0020_1">
  <metadata id="CorelCorpID_0Corel-Layer"/>
  <path class="fil0 str0" d="M17.5277 0.952328l16.5754 0 0 33.7626 -33.1508 0 0 -20.1851c0,-7.46768 7.4589,-13.5775 16.5755,-13.5775l-5.01621e-005 5.01621e-005z"/>
  <path class="fil1" d="M19.5959 21.5321l-4.92391 0 0 -0.491087c0,-0.836102 0.0929002,-1.5174 0.283115,-2.03944 0.190215,-0.526451 0.47338,-0.999831 0.849395,-1.43338 0.376065,-0.433551 1.22105,-1.19451 2.53499,-2.28278 0.698959,-0.570694 1.04849,-1.09273 1.04849,-1.56611 0,-0.477794 -0.141557,-0.844981 -0.420308,-1.11044 -0.283115,-0.260993 -0.707837,-0.393722 -1.27853,-0.393722 -0.614937,0 -1.11927,0.203508 -1.52187,0.610523 -0.402551,0.402551 -0.65918,1.11485 -0.769738,2.12351l-5.03011 -0.623816c0.172507,-1.84923 0.844981,-3.33568 2.01291,-4.46383 1.17239,-1.1281 2.96849,-1.68996 5.38846,-1.68996 1.88459,0 3.40204,0.393722 4.56114,1.1768 1.57053,1.0662 2.35802,2.48187 2.35802,4.25149 0,0.734373 -0.203508,1.44663 -0.610523,2.12793 -0.402601,0.681302 -1.23429,1.51745 -2.48628,2.49958 -0.871567,0.694545 -1.42455,1.24758 -1.6546,1.66784 -0.225629,0.415844 -0.340651,0.964467 -0.340651,1.63689zm-5.09647 1.30953l5.27786 0 0 4.65404 -5.27786 0 0 -4.65404z"/>
 </g>
</svg>
