<?xml version="1.0" encoding="UTF-8"?>
<!DOCTYPE svg PUBLIC "-//W3C//DTD SVG 1.1//EN" "http://www.w3.org/Graphics/SVG/1.1/DTD/svg11.dtd">
<!-- Creator: CorelDRAW -->
<svg xmlns="http://www.w3.org/2000/svg" xml:space="preserve" width="300px" height="300px" style="shape-rendering:geometricPrecision; text-rendering:geometricPrecision; image-rendering:optimizeQuality; fill-rule:evenodd; clip-rule:evenodd"
viewBox="0 0 38.5556 39.2286"
 xmlns:xlink="http://www.w3.org/1999/xlink">
 <defs>
  <style type="text/css">
   <![CDATA[
    .str1 {stroke:#1F1A17;stroke-width:0.110342}
    .str0 {stroke:#1F1A17;stroke-width:2.09473;stroke-linecap:round;stroke-linejoin:round}
    .fil1 {fill:none}
    .fil3 {fill:#00923F}
    .fil4 {fill:#71625B}
    .fil0 {fill:#75C5F0}
    .fil2 {fill:#FFF500}
    .fil5 {fill:white}
   ]]>
  </style>
 </defs>
 <g id="Слой_x0020_1">
  <metadata id="CorelCorpID_0Corel-Layer"/>
  <path class="fil0 str0" d="M19.2778 1.04742l18.2304 0 0 37.1338 -36.4609 0 0 -22.2006c0,-8.21334 8.20368,-14.9333 18.2305,-14.9333l-5.51708e-005 5.51708e-005z"/>
  <ellipse class="fil1 str1" cx="33.5952" cy="4.72991" rx="3.82891" ry="3.97434"/>
  <g id="_96299152">
   <path id="_96299536" class="fil2 str1" d="M29.427 4.69995c-0.20816,0.0207442 -0.161651,0.0904802 -0.365562,0.252572l-2.39011 1.19848 -2.04458 0.626189 -1.81076 0.608645 -0.3489 -1.04681 1.87277 -0.627292 1.35213 -0.334721 0.825411 -0.396733 1.63422 -0.709497c0.25831,-0.166947 0.414609,-0.43927 0.707566,-0.562411 0.178809,-0.0751427 0.375769,-0.0844665 0.567818,-0.111831 0.304708,0 0.551708,0.247 0.551708,0.551708 0,0.304708 -0.247,0.551708 -0.551708,0.551708z"/>
  </g>
  <path class="fil1" d="M29.427 4.14829c-0.581611,0 -0.581611,0.387741 -0.969351,0.581611 -0.0969351,0.0969351 -0.872416,0.484676 -0.969351,0.484676 -0.387741,0 -1.06629,0.484676 -1.35709,0.581611 -0.290805,0.0969351 -0.581611,0.290805 -0.872416,0.290805 -0.290805,0 -1.26016,0.290805 -1.55096,0.387741 -0.290805,0.0969351 -0.775481,0.290805 -1.06629,0.387741"/>
  <g id="_95382192">
   <path id="_95383056" class="fil2 str1" d="M30.4932 7.80187c-0.162313,0.0159995 -0.293564,0.210311 -0.443022,0.27293 -0.306915,0.128603 -0.653278,0.132134 -0.98033,0.160547l-0.709221 0.0511985 -0.423767 0.0450746 -0.401699 0.0381782 -0.177209 0.114921 -0.228021 0.147251 -0.417202 0.139251 0.0896526 -0.0102066 0.0605776 -0.0201374 0.032606 -0.0169926 0.0112548 -0.00766875 -0.0153927 0.0145651 -0.041985 0.0457366 -0.161595 0.166175 -0.153871 0.123693 -0.066867 0.0497089 -0.070729 0.064605 -0.00259303 0.0049102 -0.0121376 0.0291302 -0.0179305 0.0516399 -1.29011 1.42937 -0.986896 -0.493448 0.588011 -0.725 0.223718 -0.202256 0.233538 -0.202367 0.176326 -0.170147 0.00860665 0.0149513 0.0318887 -0.0909215 0.0501503 -0.118286 0.0774598 -0.137486c0.172464,-0.242862 0.570301,-0.623265 0.83661,-0.784033l0.104383 -0.0552812 0.132962 -0.0447435 0.0126893 -0.00148961 0.182946 -0.118672 0.228187 -0.147306 0.417091 -0.139196 2.1729 -0.197181c0.0615155,-0.00717221 0.18096,-0.137651 0.218918,-0.160713 0.245786,-0.149292 0.429615,-0.178698 0.710104,-0.223718 0.304708,0 0.551708,0.247 0.551708,0.551708 0,0.304708 -0.247,0.551708 -0.551708,0.551708z"/>
  </g>
  <path class="fil1" d="M30.4932 7.25022c-0.484676,0 -0.484676,0.387741 -0.969351,0.387741 -0.0969351,0 -0.872416,0.0969351 -1.16322,0.0969351 -0.0969351,0 -0.872416,0.0969351 -0.969351,0.0969351 -0.0969351,0 -0.581611,0.387741 -0.678546,0.387741 -0.19387,0 -0.387741,0.387741 -0.484676,0.387741 -0.0969351,0.0969351 -0.387741,0.290805 -0.387741,0.484676 -0.0969351,0.19387 -0.581611,0.581611 -0.775481,0.775481 -0.19387,0.19387 -0.387741,0.387741 -0.484676,0.581611"/>
  <g id="_96297424">
   <path id="_96298936" class="fil2 str1" d="M32.432 9.06203c-1.20758,0.252682 -1.56139,1.50346 -2.27072,2.37715l-0.196518 0.244572 -0.0443022 0.0782874 -0.0969351 0.19387 -0.0386748 -0.0528537 -0.0122479 0.251689 -0.0439712 0.23729 -0.0870044 0.224104c-0.141072,0.264654 -0.385479,0.445339 -0.599983,0.646381l-0.780226 -0.780226c0.11641,-0.107307 0.37781,-0.25831 0.414057,-0.445394 0.129541,-0.66856 0.458525,-1.05575 0.87043,-1.57904 0.567708,-0.721248 0.8317,-1.54655 1.64939,-2.0635 0.431326,-0.272709 0.740558,-0.339797 1.23671,-0.435739 0.304708,0 0.551708,0.247 0.551708,0.551708 0,0.304708 -0.247,0.551708 -0.551708,0.551708z"/>
  </g>
  <path class="fil1" d="M32.432 8.51038c-0.484676,0 -0.872416,0.290805 -1.16322,0.484676 -0.290805,0.0969351 -0.969351,1.26016 -1.16322,1.6479 -0.0969351,0.0969351 -0.678546,0.775481 -0.678546,0.872416 0,0 -0.19387,0.387741 -0.19387,0.387741 0,0.581611 -0.19387,0.581611 -0.581611,0.969351"/>
  <g id="_95382552">
   <path id="_95382408" class="fil2 str1" d="M30.9803 2.79352c-0.177043,0.161651 -0.417754,0.412898 -0.679374,0.430001 -0.746737,0.0489365 -1.48145,-0.222118 -2.22482,-0.275909l-3.88364 0.00750323c-0.249262,0.00722738 -0.515682,0.172905 -0.775481,0.19387l-0.775481 0 0 -1.10342c0.346087,0 0.65885,0.0257096 0.988827,-0.0686325 0.446553,-0.127665 0.753523,-0.118507 1.24068,-0.125238l2.01009 -0.0361921 1.3764 0.0436953 0.994234 0.15012 0.812004 0.126672 0.0651016 -0.0537364 0.0712255 -0.0689635c0.215442,-0.215442 0.564784,-0.215442 0.780226,0 0.215442,0.215442 0.215442,0.564784 0,0.780226z"/>
  </g>
  <path class="fil1" d="M30.5902 2.40346c-0.0969351,0.0969351 -0.290805,0.290805 -0.484676,0.290805 -0.581611,0 -1.35709,-0.290805 -1.9387,-0.290805 -0.581611,-0.0969351 -1.9387,0 -2.61725,0l-1.35709 0c-0.19387,0 -0.581611,0.19387 -0.775481,0.19387l-0.775481 0"/>
  <g id="_96298528">
   <path id="_96299584" class="fil2 str1" d="M35.8774 8.61608l-0.11641 0.0651016 -0.114259 0.0766875 -0.0134065 0.0108135 -0.378141 1.20797 -0.429781 0.957048 -0.108797 0.610465 -0.266751 1.2654 -0.458194 0.794239 -0.986896 -0.493448c0.179526,-0.303936 0.450084,-0.630713 0.513585,-0.990151l0.203636 -1.1865 0.876168 -2.48782c0.141899,-0.426029 0.396513,-0.588452 0.786019,-0.816804 0.272544,-0.136217 0.6039,-0.0256544 0.740117,0.246889 0.136217,0.272544 0.0256544,0.6039 -0.246889,0.740117zm-0.23409 0.120824l0.0230062 -0.0484952 0.0277509 -0.113652 -0.0507572 0.162147z"/>
  </g>
  <path class="fil1" d="M35.6308 8.12264c-0.19387,0.0969351 -0.484676,0.290805 -0.484676,0.387741 -0.0969351,0.775481 -0.678546,1.74483 -0.872416,2.42338 0,0.0969351 -0.19387,0.872416 -0.19387,1.06629 0,0.581611 -0.387741,0.969351 -0.581611,1.35709"/>
  <g id="_95768872">
   <path id="_96297592" class="fil2 str1" d="M31.0749 2.1425l4.56026 0.0257096c0.3457,0.02262 1.1011,0.102894 1.11826,0.606824l-0.183112 3.99045c-0.00579294,0.402306 0.151609,1.10027 -0.319825,1.35042 -0.350555,0.185981 -0.679318,-0.0592535 -0.843617,-0.363907 -0.041985,-0.077846 -0.0815977,-0.15834 -0.118838,-0.240766 -0.0814321,0.151003 -0.172023,0.300847 -0.263937,0.458745 0.0345369,0.162919 0.0026482,0.337259 -0.121762,0.493338 -0.124796,0.156575 -0.359603,0.394858 -0.564729,0.401147 -0.290971,0.00893767 -0.462938,-0.121872 -0.540895,-0.30846l-0.257262 0.126341 -0.367603 0.0761909c-0.247331,0.277564 -0.671981,0.333728 -0.939559,-0.102507l-0.0515296 -0.093018 -0.124079 -0.305426 -0.000331025 -5.51708e-005 -0.255275 -0.0257096c-0.338308,-0.0699014 -0.814652,-0.246393 -0.799591,-0.672257l-0.0429781 -0.0291302c-0.121541,-0.0937352 -0.189126,-0.297702 -0.324294,-0.368486 -0.556563,-0.291523 -0.524509,-0.171802 -0.738075,-1.12631 -0.127334,-0.568977 0.0402195,-1.11219 0.181291,-1.6517 -0.0198615,-0.0330473 -0.0379024,-0.0693497 -0.0538467,-0.109349 -0.181071,-0.454773 0.1259,-1.06193 0.543322,-1.2772 0.0115859,-0.00595845 0.0236683,-0.011641 0.0361369,-0.0171581 -0.0506468,-0.0834183 -0.0798322,-0.181291 -0.0798322,-0.286006 0,-0.304708 0.247,-0.551708 0.551708,-0.551708zm4.13737 1.19048c0.181622,0.237124 0.270889,0.542771 0.143499,0.758047l0.0397782 0.26973 0.0298474 0.0183167 0.104052 0.0643292c0.0109238,0.00739289 0.0214063,0.0150065 0.0317232,0.0226752l0.00441367 -0.0710049 0.0706187 -1.11837 -0.0823701 -0.00805494 -0.332349 -0.0017103 -0.00921353 0.0660395zm-3.00653 -0.0813218l0.00193098 0.0030344 0.0118617 -0.00297922 -0.0137927 -5.51708e-005zm-1.32873 2.69658l-0.136989 0.0329922 0.183112 0.0915284 -0.0461228 -0.124521zm0.779509 0.713745l0.0187581 0.0252682 0.00485503 0.0056826 0.0535709 0.00402747c-0.00507572,-0.0195856 -0.00987558,-0.0396127 -0.0139582,-0.0604121 -0.0268682,-0.136824 -0.0420402,-0.272323 -0.0405506,-0.404954 -0.00750323,0.000275854 -0.0150065,0.000386196 -0.0226752,0.000331025l0 0.430057zm0.632258 -1.87244l0.00391713 -0.0434746 -0.0219028 0.0214615 -0.00855148 0.0448539c0.00866182,-0.00783426 0.0175443,-0.015503 0.0265372,-0.0228407zm3.11699 -0.359438l0.0013241 0.00893767 -0.000551708 -0.00535157 -0.000772392 -0.0035861z"/>
  </g>
  <path class="fil1" d="M31.0749 2.69427l3.68354 0c0.290805,0 1.45403,0 1.45403,0.19387 0,0.678546 -0.19387,2.42338 -0.19387,3.10192l0 1.55096c0,0.387741 -0.387741,-0.678546 -0.387741,-0.678546 -0.0969351,-0.387741 -0.19387,-0.678546 -0.19387,-1.06629 0,-0.19387 -0.0969351,-0.581611 -0.0969351,-0.775481 -0.0969351,-0.19387 -0.484676,-0.19387 -0.484676,-0.581611 0,-0.290805 -0.19387,-0.484676 -0.19387,-0.678546 0,-0.19387 0.581611,-0.0969351 0.581611,-0.0969351 -0.775481,0 -1.84177,0.0969351 -2.61725,0.0969351l-0.387741 0c0,0 -0.19387,0.19387 -0.290805,0.19387 0,0 -1.16322,0.19387 -1.26016,0.19387 -0.387741,0 0,-0.678546 0.19387,-0.678546l0.387741 0c0.0969351,0 0.484676,0 0.484676,0.0969351 0,0.0969351 -0.290805,0.19387 -0.387741,0.19387 -0.387741,0 -0.678546,0 -0.678546,0.581611 0,0.0969351 -0.290805,0.775481 -0.290805,1.06629 0,0.19387 0.0969351,0.969351 0.0969351,1.06629 0,0 0.387741,0.19387 0.387741,0.19387 0.387741,0.19387 0.290805,0.581611 0.872416,0.581611 0.0969351,0 0.775481,0.581611 0.872416,0.581611 0,0 0.19387,0.19387 0.19387,0.290805 0,0.775481 -0.290805,-0.19387 -0.290805,-0.19387 -0.0969351,-0.290805 -0.678546,-0.19387 -0.872416,-0.290805 -0.387741,-0.19387 0.484676,-0.387741 0.484676,-0.387741l0.872416 0c1.16322,0 -0.581611,0.969351 0.0969351,0.969351 0.0969351,0 0.387741,-0.0969351 0.581611,-0.19387l0.19387 -0.19387c0.0969351,0 0.678546,0.0969351 0.581611,0.290805l-0.19387 0.19387 0.0969351 -0.290805c0.0969351,-0.290805 0.678546,-0.969351 0.678546,-1.45403 0,-0.290805 0.0969351,-1.35709 -0.0969351,-1.35709l-0.19387 -0.0969351c-0.290805,-0.0969351 -0.0969351,-0.872416 -0.387741,-1.16322 -0.484676,-0.290805 -0.775481,0.581611 -0.775481,0.872416l0 1.35709c0,0.678546 0.775481,-0.290805 0.775481,-0.581611 0,-0.0969351 0.19387,-1.26016 0.0969351,-0.678546 0,0.581611 -0.387741,1.16322 -0.387741,1.74483 0,0.775481 0.290805,-0.484676 0.290805,-0.678546l0 -1.06629c0,-0.0969351 -0.484676,-0.484676 -0.678546,-0.19387 0,0 -0.290805,1.16322 -0.290805,1.26016l0 0.678546c0,0.387741 -0.484676,-0.581611 -0.484676,-0.581611 0,-0.290805 0,-0.678546 -0.19387,-0.872416 -0.0969351,-0.0969351 -0.19387,0.19387 -0.19387,0.290805 0,0.19387 -0.290805,0.387741 -0.290805,0.581611 0,0.19387 0,0.581611 0.0969351,0.581611 0.484676,0.0969351 0.484676,-0.872416 0.484676,-1.06629 0,-0.0969351 0.19387,-0.387741 0.0969351,-0.387741 -0.0969351,0 -0.387741,0.19387 -0.387741,0.290805 0,0 -0.484676,1.06629 0,0.581611 0,-0.0969351 0.290805,-0.969351 0.290805,-1.06629 0,-0.290805 0.0969351,-0.775481 0.0969351,-0.969351 0,-0.678546 -1.16322,0.387741 -1.16322,0.484676 0,0 -0.290805,1.45403 -0.0969351,1.06629 0,0 0.0969351,-0.872416 -0.19387,-0.872416 -0.0969351,0 -0.19387,0.19387 -0.19387,0.290805 0,0.19387 0.0969351,0.387741 0.0969351,0.581611 0,0.19387 0.19387,0.484676 0.19387,0.678546 0,0.0969351 -0.387741,0.290805 0.0969351,0.290805"/>
  <g id="_95769016">
   <path id="_95769448" class="fil1 str1" d="M35.7948 3.08195c0,0.772612 0.236573,1.76359 -0.381341,2.3756 -0.527378,0.522357 -1.18821,0.955283 -1.83162,1.32178 -0.464759,0.26471 -1.16824,0.280268 -1.68729,0.254503 -0.525778,-0.0260958 -0.836114,-0.386141 -1.10827,-0.812446l-0.27944 -0.578908c-0.151444,-0.3697 -0.126672,-0.439712 0.127445,-1.01834 0.0482193,-0.109845 0.362693,-0.149954 0.462442,-0.248048 0.0951145,-0.0935697 0.183112,-0.178974 0.277068,-0.251358 0.0207442,-0.368651 0.153871,-0.718655 0.481862,-0.899174 0.44396,-0.244296 1.16736,-0.0471159 1.47599,0.353148 0.23569,0.305591 0.191057,0.845052 -0.0485503,1.13724 -0.179857,0.219304 -0.404182,0.269565 -0.65725,0.284957l0 0.571459c-0.309012,-0.0196408 -0.662822,-0.081377 -0.90265,-0.28264l-0.141237 0.0866734 0.0250476 0.0685773 0.104604 0.175333 0.0895974 0.127996 0.150947 0.179912 0.0572673 -0.00176547 0.228683 -0.00347576 0.326942 -0.0436401 0.441808 -0.0431436 0.0304543 -0.0164961 0.0856251 -0.0517502 1.48636 -1.06601 0.0572673 -0.0670877 0.0248269 -0.037461 0 -1.51543c0,-0.304708 0.247,-0.551708 0.551708,-0.551708 0.304708,0 0.551708,0.247 0.551708,0.551708z"/>
  </g>
  <path class="fil1" d="M35.2431 3.08201l0 1.55096c0,0.581611 -1.45403,1.26016 -1.74483,1.55096 -0.0969351,0 -0.290805,0.19387 -0.387741,0.19387 -0.19387,0 -0.775481,0.0969351 -0.872416,0.0969351 -0.678546,0 -0.387741,0.0969351 -0.872416,-0.387741 -0.0969351,-0.19387 -0.387741,-0.581611 -0.387741,-0.775481l-0.0969351 -0.19387c0,0 0.387741,-0.19387 0.387741,-0.19387 0.387741,-0.19387 0.290805,-0.484676 0.872416,-0.484676 0.387741,0 0.872416,0.19387 0.775481,-0.484676 0,-0.0969351 -0.484676,-0.290805 -0.581611,-0.290805 -0.484676,0 -0.387741,0.484676 -0.387741,0.775481 0,0.484676 0.290805,0.581611 0.678546,0.581611"/>
  <g id="_96299056">
   <path id="_96299704" class="fil3 str1" d="M2.71672 34.3963c0.837548,-0.151996 1.50992,-0.337259 2.295,-0.692835l2.23486 -1.04025c0.544922,-0.154644 1.04549,0.162368 1.06248,0.733827l0.00562742 1.00797 0.206835 -0.377148 0.235248 -0.435629c0.256213,-0.418526 0.694215,-0.905077 1.24559,-0.745303 0.255275,0.0739841 0.482303,0.264654 0.610576,0.497751l0.145375 0.269289 0.415767 1.2291 0.324239 0.898291 0.00761357 0.000551708 0.281206 -0.0259303 5.24917 -2.07464c0.689691,-0.281978 2.36313,-1.37414 2.6637,-0.0283578 0.174505,0.781329 0.0812115,1.64988 0.0622327,2.43452l-0.0110893 0.348018 0.336321 -0.219911 1.0968 -0.919643c1.27754,-1.10369 2.48291,-2.5543 4.11475,-3.14281 0.469007,-0.169099 1.0077,0.0414885 1.27058,0.446608 0.220794,0.340294 0.222504,0.738517 0.254062,1.12808l0.0255441 0.494 0.0373507 0.176657c1.06601,-0.763233 1.74081,-2.0182 2.89283,-2.66966 0.434194,-0.24551 0.919974,-0.323411 1.34457,-0.0225097 0.307136,0.217704 0.49891,0.617968 0.592645,0.962952l0.137762 0.634244 0.0440263 0.598052 0.0434194 -0.0657085c0.429119,-0.56186 1.04477,-1.41734 1.87741,-1.25138 0.550219,0.10968 0.73631,0.624975 1.14976,0.92858 0.42294,0.310557 0.82199,-0.364734 0.987668,-0.6135l0.987006 0.493338c-0.488207,0.719593 -1.05045,1.44945 -2.03111,1.26071 -0.565998,-0.108907 -0.876996,-0.503379 -1.24603,-0.907781l-0.0453504 -0.0584811 -0.0122479 -0.0114755 -0.0108135 0.00375162 -0.0489917 0.0250476 -1.37806 1.80033c-0.244793,0.356128 -0.644561,0.719428 -1.07274,0.394471 -0.142341,-0.108024 -0.229952,-0.295771 -0.238117,-0.472649 -0.0436953,-0.944469 0.0105928,-1.86671 -0.332294,-2.76014l-0.0273647 -0.0397782 -0.0120824 -0.013903 -0.158009 0.0717773 -0.244241 0.168381 -2.279 2.23751c-0.51982,0.434305 -1.42688,0.769633 -1.83465,0.00126893 -0.30526,-0.575211 -0.183498,-1.21387 -0.303715,-1.8272l-0.0184822 -0.0497641 -0.00253786 -0.00485503 -0.0780116 0.0126893 -0.153099 0.0526881 -2.21285 1.6751c-1.11417,0.950869 -2.11679,2.2321 -3.55306,2.69758 -0.381286,0.123583 -0.781219,-0.203415 -0.921574,-0.52142 -0.14692,-0.332846 -0.0743703,-0.75882 -0.0692394,-1.08918l0.0207994 -1.59223 -0.0166616 -0.206891 -1.17668 0.449863 -2.54569 1.14077 -1.29491 0.520537c-0.69289,0.262172 -1.97175,0.826018 -2.75451,0.391603 -0.507185,-0.281482 -0.635733,-1.15759 -0.776971,-1.54738l-0.356293 -1.07191 -0.000496537 -0.000937904 -0.0593086 0.0850183c-0.360872,0.612893 -0.69278,1.81093 -1.5439,1.91332 -0.283468,0.0340956 -0.64583,-0.153154 -0.740117,-0.438443l-0.0552812 -0.128989 -0.147913 -1.04626 -0.00364127 -0.611293 -0.243855 0.104273 -2.36175 1.12532 -1.88607 0.415767c-0.304708,0 -0.551708,-0.247 -0.551708,-0.551708 0,-0.304708 0.247,-0.551708 0.551708,-0.551708z"/>
  </g>
  <path class="fil1" d="M2.71672 34.948c2.13257,0 5.04063,-2.52031 5.04063,-1.55096 0,1.26016 -0.0969351,3.5866 1.26016,0.872416 1.16322,-2.42338 1.45403,0.678546 2.03564,1.84177 0.581611,0.969351 6.59159,-2.32644 7.94868,-2.61725 0.387741,0 0.19387,2.81112 0.19387,3.19886 0.290805,2.32644 7.07627,-7.1732 7.07627,-3.00499 0,3.48967 2.61725,-1.16322 4.07128,-1.6479 1.16322,-0.290805 1.06629,2.71418 1.06629,3.2958 0.0969351,0.775481 1.6479,-3.39273 2.71418,-1.9387 0.678546,1.06629 1.74483,0.872416 2.32644,-0.290805"/>
  <path class="fil1" d="M2.47899 34.025c2.13257,0 5.04063,-2.52031 5.04063,-1.55096 0,1.26016 -0.0969351,3.5866 1.26016,0.872416 1.16322,-2.42338 1.45403,0.678546 2.03564,1.84177 0.581611,0.969351 6.59159,-2.32644 7.94868,-2.61725 0.387741,0 0.19387,2.81112 0.19387,3.19886 0.290805,2.32644 7.07627,-7.1732 7.07627,-3.00499 0,3.48967 2.61725,-1.16322 4.07128,-1.6479 1.16322,-0.290805 1.06629,2.71418 1.06629,3.2958 0.0969351,0.775481 1.6479,-3.39273 2.71418,-1.9387 0.678546,1.06629 1.74483,0.872416 2.32644,-0.290805"/>
  <g id="_96298240">
   <path id="_96298024" class="fil3 str1" d="M2.43667 34.635c-0.617637,-0.224656 -1.25492,-0.679043 -1.05956,-1.44663 0.270447,-1.06276 1.15191,-1.74709 2.06709,-2.25627 0.0251027,-0.0803287 0.0483848,-0.154423 0.0680256,-0.220463 0.141458,-0.475407 0.713966,-1.03848 1.17712,-0.533778 0.24231,0.264048 0.26471,0.665415 0.306253,0.99633l0.240434 2.32529 0.0418195 0.186974c0.31817,-0.40374 0.440484,-1.22755 1.11478,-0.97371 0.423602,0.159444 0.40054,0.691401 0.412126,1.05503l0.00446884 0.638492c0.527985,-1.32388 0.874789,-3.01955 1.88028,-4.06184 0.263496,-0.273151 0.755399,-0.143555 0.966041,0.115583 0.469669,0.577804 0.319439,1.63604 0.354473,2.28407l0.000220683 0.00562742 0.125679 -0.118452 1.61882 -2.35039c0.215608,-0.371189 0.711649,-0.611127 1.02783,-0.181733 0.0703428,0.0955007 0.109955,0.207663 0.129376,0.32766 0.0819839,-0.0308957 0.170699,-0.0448539 0.267027,-0.0366334 0.844886,0.072329 0.605665,1.39676 0.616037,1.87255l0.00954455 0.29373 0.837052 -0.727152c0.771399,-0.590107 1.68988,-0.597279 2.59888,-0.495158 0.21969,0.0246614 0.351549,0.162754 0.428622,0.342887 0.139141,0.118397 0.260627,0.279937 0.380237,0.44098l0.322087 0.545695c0.000275854,0.000441367 0.000827562,0.000772392 0.0013241,0.000882733 0.612727,0.139086 1.3919,-0.385368 1.95895,-0.542936 0.630437,-0.175167 1.38451,-0.301619 1.8277,0.300074l0.41836 0.679539 0.0466194 0.0447435 0.0163306 0.0119721 0.00292405 -0.00126893 0.0802184 -0.051364c0.484124,-0.393699 0.985296,-1.10275 1.69683,-0.768861 0.279275,0.131031 0.402582,0.394913 0.593804,0.617141l0.113211 0.10339 0.0242752 0.0142892 0.000717221 -0.000331025 0.0298474 -0.0187581 0.0439712 -0.0356404c0.899781,-0.961628 0.827728,-2.50382 1.70042,-3.4436 0.291578,-0.314032 0.772281,-0.0247717 0.889574,0.286943 0.0770185,0.204684 0.0265372,0.474083 0.00468952,0.681194l-0.100742 0.817466 0.425477 -0.627016c0.148189,-0.225207 0.630989,-0.161706 0.807646,-0.0290199 0.288488,0.216766 0.41163,0.551488 0.499186,0.89123l0.0660395 -0.298971c0.0879975,-0.331742 0.345976,-0.781053 0.764557,-0.661774 0.751206,0.214118 0.472704,1.24471 0.483959,1.80193l0.0083308 0.16634c0.399602,-0.585804 1.17045,-1.81545 1.94306,-1.1326 0.156133,0.137982 0.240545,0.321701 0.287716,0.52142l0.0631154 -0.0878871c0.328266,-0.421174 0.935366,-0.780833 1.36134,-0.247055 0.33897,0.42476 0.270889,1.07545 0.297591,1.57358l-1.10342 0 -0.0136272 -0.162699c-0.310667,0.478276 -0.770185,1.10562 -1.3305,0.684339 -0.285619,-0.214725 -0.287385,-0.588011 -0.303771,-0.909381l-0.000827562 -0.021627 -0.0857906 0.114148c-0.369369,0.504096 -0.897464,1.53491 -1.68845,0.998151 -0.0656533,-0.044578 -0.123748,-0.0943973 -0.175112,-0.148685 -0.16325,0.286116 -0.399437,0.472704 -0.752585,0.395354 -0.230614,-0.0505365 -0.408816,-0.244462 -0.491462,-0.459628l-0.313867 -1.47858 -0.58139 1.22948 -0.211194 0.388734c-0.290364,0.461614 -0.912581,0.609362 -1.18832,0.0509778 -0.0787839,-0.159609 -0.090094,-0.395906 -0.0830873,-0.606327 -0.335383,0.640533 -1.23048,1.20366 -1.89826,0.666077l-0.31006 -0.27464 -0.196684 -0.25842 -0.10008 0.0834735 -0.317839 0.305315c-0.532895,0.464042 -1.29602,0.659622 -1.81054,0.0298474l-0.259579 -0.339466 -0.239717 -0.434194 -0.00391713 -0.00684118 -0.0396678 -0.00706187 -0.128603 0.00430332 -0.439436 0.103445c-0.828666,0.248986 -2.25869,1.08311 -3.04554,0.296323 -0.0808253,0.23238 -0.213346,0.425698 -0.43767,0.496537l-0.154975 0.0221235 -0.000110342 0 -0.522964 -0.377148 -0.0113652 -0.0321646 -0.0179857 -0.100411 -0.00253786 -0.057488c-0.00413781,-0.274916 -0.0468952,-0.689249 -0.002262,-1.06369l-0.382886 0.0361921 -0.423933 0.132741c-0.832583,0.392761 -1.21652,1.06629 -1.77424,1.73689 -0.229952,0.276461 -0.675843,0.307302 -0.916277,0.02422 -0.251082,-0.295605 -0.287826,-0.85581 -0.285785,-1.34308 -0.141072,0.35861 -0.293288,0.714462 -0.719152,0.761302 -0.252462,0.0277509 -0.483903,-0.199994 -0.540398,-0.42785 -0.0349231,-0.140796 -0.00937904,-0.334942 0.0301784,-0.521254l-0.255331 0.34559c-0.39712,0.524233 -1.27229,1.32421 -1.93445,0.744917 -0.316405,-0.276792 -0.337094,-0.716448 -0.356404,-1.10452l-0.0201374 -0.62172 -0.511765 1.27787 -0.591542 1.54009c-0.183443,0.434194 -0.654547,1.99354 -1.54004,1.61601 -0.365617,-0.155858 -0.454608,-0.607155 -0.496096,-0.955007l-0.0359162 -0.840141c-0.175333,0.113652 -0.377368,0.183443 -0.614879,0.182505 -0.334997,-0.00126893 -0.614824,-0.23911 -0.741441,-0.539516 -0.133458,-0.316681 -0.209759,-0.651402 -0.259413,-0.992413 -0.169981,0.0730462 -0.362748,0.0786184 -0.527378,-0.02422 -0.320156,-0.200105 -0.429395,-0.54917 -0.431767,-0.940276 -0.292571,0.260351 -0.54757,0.56688 -0.67325,0.936966 -0.0439712,0.129541 0.179085,0.157513 0.252186,0.183112 0.294833,0.0769081 0.47149,0.378251 0.394582,0.673084 -0.0769081,0.294833 -0.378251,0.47149 -0.673084,0.394582zm14.0628 -1.02232l-0.00187581 -0.0013241 0.0173788 0.0453504 -0.015503 -0.0440263z"/>
  </g>
  <path class="fil1" d="M2.57593 34.1013c-2.22951,-0.581611 1.84177,-3.78047 1.6479,-2.42338 -0.19387,2.13257 -0.872416,1.26016 -0.19387,-0.775481 0.678546,-1.74483 0.290805,3.48967 1.06629,3.48967 1.06629,0 1.16322,-2.81112 1.16322,0.290805 0,5.81611 3.19886,-9.1119 3.19886,-1.9387 0,2.42338 2.61725,-1.74483 2.71418,-2.03564 0.484676,-1.26016 -0.0969351,2.03564 -0.19387,2.32644 -0.19387,0.872416 1.26016,-3.2958 1.26016,-1.74483 0,1.16322 0,3.19886 0.290805,2.52031 0.581611,-0.969351 2.03564,-2.42338 3.5866,-1.9387 0.290805,0 -0.0969351,1.74483 -0.0969351,1.55096l0 -0.678546c0,-1.26016 0.484676,-0.581611 0.872416,0.19387 0.678546,1.06629 3.39273,-1.26016 3.87741,-0.0969351 1.16322,2.32644 1.84177,-0.872416 2.61725,0.19387 1.16322,1.84177 2.03564,-0.969351 2.81112,-2.90805 0.484676,-1.06629 -0.872416,5.42837 0.19387,3.10192 1.06629,-2.13257 1.26016,-3.19886 1.74483,-0.387741 0.387741,2.61725 0.872416,-2.03564 1.06629,-1.6479 0.19387,0.19387 -0.290805,2.32644 0.484676,2.32644 0.387741,0 1.84177,-3.2958 1.84177,-0.678546 0,2.03564 1.6479,-3.19886 1.6479,0.387741"/>
  <g id="_96297088">
   <path id="_96299128" class="fil3 str1" d="M1.87719 34.0259l1.09862 -1.53899c0.295164,-0.377975 0.895809,-0.237566 0.999916,0.232269 0.0434194,0.195967 0.00689635,0.381672 0.132576,0.558274l0.0987558 0.123031 0.151996 0.13241 0.103059 -0.104383c0.472759,-0.492951 1.00185,-1.19445 1.76514,-1.16907 0.422278,0.0140134 0.782157,0.273702 1.01123,0.618024l0.255165 0.460676 0.0270337 0.0567708 0.0848527 -0.152878c0.263055,-0.518826 0.611348,-1.81843 1.46263,-1.6143 0.307357,0.0737082 0.518275,0.367383 0.593307,0.661664l0.180243 0.915284 0.125624 0.564563 0.0327163 -0.0153375 1.95961 -1.60641c0.469338,-0.322805 0.93978,-0.0301784 1.11009,0.406885 0.454552,-0.332956 1.04698,-0.643954 1.59764,-0.403575 0.202367,0.0883285 0.360045,0.27442 0.496317,0.439932l0.0824252 0.10659c0.04844,-0.312432 0.137982,-0.622768 0.4844,-0.713193 0.231111,-0.0603017 0.469007,0.0312267 0.617196,0.215939l0.00231717 0.00369645 0.481476 -0.321756 0.566384 -0.249427c0.847424,-0.293067 2.50696,-0.433091 2.50089,0.806984 -0.00126893,0.258034 -0.00904802,0.538798 -0.0454056,0.815425l2.27166 -0.2326c0.0761357,-0.669553 1.18292,-1.2697 1.76607,-0.93007 0.217539,0.126672 0.323577,0.337149 0.340239,0.56368 0.519158,-0.0169926 1.06276,0.0436401 1.35312,0.525778 0.0366886,0.0609638 0.0661498,0.126783 0.0894871,0.195912 0.203746,-0.620617 0.24369,-1.29701 0.725552,-1.78891 0.265206,-0.270778 0.715345,-0.0409368 0.872196,0.215939 0.128603,0.210587 0.0977627,0.488207 0.115583,0.720255l0.117073 0.9496 0.0395575 0.0838597 0.0136272 0.0190339 0.0132962 -0.00126893 0.0645499 -0.017103 0.0939559 -0.0385092 2.11095 -1.94461c0.0960524,-0.0893767 0.220849,-0.163637 0.351383,-0.20027l0.064605 -0.157458c0.236297,-0.408209 0.833576,-1.57971 1.34297,-0.822983 0.443077,0.658188 0.0484952,1.61998 0.595238,2.26085 0.175057,0.20518 0.756171,0.0297371 0.843728,0.0049102 0.274254,-0.0777909 0.777798,-0.258641 1.01189,-0.464373 0.286778,-0.252076 0.657471,-0.688201 1.06138,-0.532399l0.148685 -0.743151 0.986896 0.493558c-0.156906,0.737193 -0.0475573,1.71294 -0.517061,2.34139 -0.180519,0.241593 -0.552315,0.35199 -0.810956,0.158616 -0.255386,-0.190946 -0.291964,-0.481034 -0.308515,-0.774985 -0.81057,0.517833 -2.33477,1.17564 -3.17001,0.322087 -0.248986,-0.254448 -0.401588,-0.548508 -0.504206,-0.863148 -0.0999144,0.184491 -0.188353,0.329425 -0.208435,0.38581 -0.0783978,0.220463 -0.194256,0.593583 -0.378031,0.76704l-0.177098 0.137872 -0.0270889 0.0126893 -0.155085 0.0414333 -0.136051 0.00066205 -0.0467297 -0.00783426 -0.1035 -0.0328266c-0.102838,-0.0499848 -0.23078,-0.148575 -0.29053,-0.266972 -0.48131,0.487545 -1.02943,0.935587 -1.65568,1.02712 -0.575983,0.0841907 -0.954124,-0.193815 -1.18209,-0.613334l-0.895754 1.48288 -0.070729 0.117183c-0.0329922,0.15354 -0.0793908,0.293564 -0.146203,0.394306l-0.102949 0.142341 -5.51708e-005 0.000110342 -0.942373 -0.390058 0.0088825 0.0984799 -0.00893767 -0.0989765 0.121762 -0.334004 -0.0609638 0.0840252 -0.0121376 0.0257096 -0.0083308 0.0205235 -0.00198615 0.00546191 0.0043585 -0.0141237 0.00954455 -0.0344266 0.0286337 -0.122369 0.10488 -0.775481 0.0323301 -0.866734 -0.000606879 -0.0124686 -0.00446884 -0.00143444 -0.0879423 -0.0143996c-0.198781,-0.0173788 -0.438001,0.00954455 -0.688863,0.0388403 -0.198781,0.385368 -0.482303,0.744972 -0.892609,0.666408 -0.258917,-0.0495986 -0.424595,-0.191608 -0.561805,-0.399271l-0.890402 0.0558881 -1.21514 0.162864 -0.515792 0.0871147 -0.394913 0.0751978 -0.135996 0.0288543 -0.00231717 0.000551708c-0.119335,0.0558329 -0.253234,0.0769633 -0.381782,0.0454056l-0.0473366 -0.0120272 -0.101845 -0.0419298 -0.262227 -0.436732 0.0278061 -0.298309 0.0598052 -0.0943973 0.0628947 -0.0675843c0.0159995,-0.0150616 0.0333784,-0.029075 0.0518054,-0.0423712l0.0573225 -0.223552 0.077515 -0.588949 0.00319991 -0.119831 -0.158506 -0.0340956 -0.44567 0.0123583 -0.430664 0.104549c-0.384044,0.137596 -0.679098,0.452842 -1.05398,0.613665l-0.237566 0.207277 -0.217539 -0.105211c-0.121872,0.462332 -0.419685,0.963062 -0.978068,0.808253 -0.442801,-0.122755 -0.695263,-0.581556 -0.963172,-0.913574l-0.083308 -0.0971007 -0.0052964 -0.00524123 -0.000386196 5.51708e-005 -0.114038 0.030675 -0.118893 0.0513089c-0.470055,0.251855 -0.984468,1.10115 -1.61171,0.714352 -0.188905,-0.116521 -0.272875,-0.311163 -0.311163,-0.517061l-0.372458 0.34399c-0.534385,0.462663 -1.36973,1.39555 -2.20137,1.02165 -0.209318,-0.0940663 -0.432981,-0.294392 -0.503323,-0.517668l-0.226642 -0.908057c-0.250586,0.591818 -0.575597,1.29811 -1.19312,1.36945 -0.601197,0.0694601 -0.836776,-0.521695 -1.06893,-0.961903 -0.0575432,-0.109073 -0.155637,-0.363962 -0.29715,-0.445725l-0.00601362 -0.00187581 -0.00993075 -0.00110342 -0.0235579 0.00126893 0.00159995 0.000551708 -0.0425367 0.0193098 -0.072991 0.0441367 -0.0918594 0.0673084c-0.425202,0.364955 -0.782212,0.997654 -1.32564,1.1955 -0.511654,0.186257 -1.0216,-0.220132 -1.35196,-0.690518l-0.531626 0.708062c-0.188243,0.239607 -0.535047,0.281206 -0.774654,0.0929629 -0.239607,-0.188243 -0.281206,-0.535047 -0.0929629,-0.774654zm16.5748 0.00209649l-0.0305646 -0.0509227 0.0211856 0.151444 0.00937904 -0.100521zm11.5386 -0.0845217l-0.00524123 0.00137927 0.0121928 -0.00143444 -0.00695152 5.51708e-005z"/>
  </g>
  <path class="fil1" d="M2.311 34.3668c2.13257,-2.71418 0.19387,-1.26016 2.03564,-0.19387 0.290805,0.0969351 1.16322,-1.35709 1.74483,-1.35709 1.26016,-0.19387 0.872416,3.10192 2.22951,0.19387 0.872416,-2.13257 0.872416,0.290805 1.16322,1.06629 0.678546,1.35709 3.19886,-2.81112 3.10192,-1.06629 0,1.35709 0.581611,-0.387741 1.74483,-0.387741 0.484676,0 1.26016,2.22951 1.45403,0.19387 0.0969351,-0.775481 0.290805,0.19387 0.290805,0.290805 0,0 1.6479,-1.6479 3.19886,-0.969351 0.19387,0 0,1.84177 -0.290805,1.84177 -0.19387,0 2.22951,-0.484676 3.68354,-0.484676 0.19387,0 0.290805,1.26016 0.969351,-0.581611 0.387741,-0.872416 -1.35709,0.0969351 -0.872416,0.290805 0.678546,0.290805 2.42338,-0.484676 2.42338,0.581611 0,2.81112 -0.872416,2.52031 0.872416,0.0969351 0,0 0.775481,-3.00499 0.775481,-1.35709 0,4.16821 3.5866,-1.16322 3.48967,-0.581611 -1.26016,3.87741 0.678546,-1.26016 0.775481,-1.26016 0.290805,0 -0.0969351,2.61725 1.35709,2.61725 0.969351,0 2.03564,-0.678546 2.03564,-0.775481 0.969351,-1.26016 0.484676,1.6479 0.872416,0.775481 0.290805,-0.484676 0.0969351,-1.55096 0.387741,-2.13257"/>
  <g id="_95769472">
   <path id="_96298000" class="fil4 str1" d="M9.39129 31.9686l0.561198 -3.40365 -0.464263 -2.41245c-0.0117514,-0.695815 0.192105,-1.39577 0.469559,-2.03398 0.10659,-0.245234 0.320487,-0.640257 0.578852,-0.963338l0.707676 -7.15615c0.0396678,-0.471545 0.299026,-1.02209 0.86541,-0.849962 0.569308,0.173016 0.82988,1.26738 0.937242,1.66026l0.718214 3.74676 0.31657 4.62309 0.506192 3.12863 0.128934 2.25307 0.186036 1.86654c-0.0104273,0.178036 -0.0896526,0.364127 -0.249482,0.459463l-0.131858 0.0644947 -0.138037 0.027144 -0.155858 -0.0139582 -0.128548 -0.0432539 -0.0596397 -0.0345921 -0.0554467 -0.0422057c-0.0963283,-0.152106 -0.186643,-0.309839 -0.221787,-0.486441l-0.649581 -3.87095 -0.0738186 1.39306c-0.00176547,0.00954455 -0.519709,3.20653 -1.72525,2.36087 -0.316019,-0.221676 -0.536481,-0.57957 -0.700228,-0.976634l-0.118672 0.7042c0,0.304708 -0.247,0.551708 -0.551708,0.551708 -0.304708,0 -0.551708,-0.247 -0.551708,-0.551708zm4.83639 0.995944l-0.0149513 -0.0013241 0.0317784 0.0070067 -0.0168271 -0.0056826zm-2.52258 -10.1412c0.0313922,0.0370748 0.0621224,0.079446 0.0921905,0.127941 0.0555019,0.0895423 0.101349,0.188574 0.139693,0.293178l0.265427 0 0 -2.71418c0.00937904,-0.304212 0.100135,-0.662105 0.353645,-0.779785 -0.0908664,-0.653498 -0.198118,-1.22876 -0.342666,-1.80067l-0.508289 4.87352zm-0.102011 7.75967l-0.018096 -0.753468 -0.283192 -1.58627 -0.0696256 -0.886099 -0.0644947 0.618189 -0.138368 0.821107c0.164409,0.607707 0.362638,1.20703 0.573777,1.78654z"/>
  </g>
  <path class="fil1" d="M9.943 31.9687c0,-1.16322 0.484676,-3.00499 0.678546,-4.07128 0.387741,-2.71418 0.678546,-6.20385 0.969351,-8.91803 0,-0.775481 0.19387,-1.84177 0.19387,-2.61725 0,-2.03564 0.872416,1.06629 0.872416,1.06629 0.678546,1.74483 0.581611,4.55595 0.678546,6.39772 0,0.872416 0.387741,2.03564 0.484676,3.00499 0.19387,0.969351 0.290805,2.03564 0.290805,3.19886 0,0.290805 0.387741,3.10192 0.19387,2.22951 -0.387741,-2.22951 -1.26016,-5.13756 -1.26016,-7.46401 0,-1.35709 -0.290805,-5.62224 -0.290805,-4.26515l0 1.45403 0 5.71917c0,1.16322 -0.387741,3.00499 -0.872416,3.97434 -0.678546,1.06629 -1.84177,-4.84676 -1.84177,-5.5253 0,-0.290805 0.387741,-1.45403 0.387741,-1.74483 0,0 0.775481,-1.26016 0.775481,-1.26016 0.484676,0 0.581611,3.87741 0.581611,4.36208 0,0.872416 0.387741,1.6479 0.387741,2.52031 0,2.52031 -0.0969351,-2.32644 -0.0969351,-2.90805 0,-1.26016 -0.0969351,-2.61725 -0.0969351,-3.87741"/>
  <g id="_96298600">
   <path id="_96298360" class="fil3 str1" d="M8.23458 20.3872c0.0013241,0.143886 0.013241,0.297922 0.0409919,0.448153 0.0482193,-0.0823149 0.100411,-0.163526 0.155416,-0.243303l-0.00904802 -0.158726 -0.000165512 -0.00237235 -0.00783426 -0.00474469 -0.0353645 -0.0153927c-0.0470607,-0.00976524 -0.0951145,-0.0175443 -0.143996,-0.0236131zm-1.10093 0.140134c-0.337701,0.124245 -0.644837,0.319549 -0.857906,0.572618 -0.235745,0.280047 0.175278,0.914953 0.359769,1.09415 0.471986,0.45847 1.47378,0.789439 2.17566,0.529805 -0.246779,-0.00209649 -0.493558,-0.0673636 -0.680587,-0.182174 -0.663319,-0.407216 -0.958428,-1.23555 -0.996937,-2.0144zm-0.949435 -1.22137l-0.371245 0.0150065 -0.0148961 0.00215166 0.00259303 0.0070067c0.0355852,0.0948938 0.25842,0.0190339 0.282254,0.01131 0.0334335,-0.0108687 0.0672532,-0.0227856 0.101294,-0.0354748zm1.84182 -1.68111c0.0505365,-0.127831 0.08557,-0.257979 0.101625,-0.388899 0.03713,-0.302998 -0.223276,-0.279661 -0.477945,-0.310832 -0.459628,-0.0562742 -0.917601,-0.0983144 -1.37447,-0.0056826l-0.0079446 0.00248269 0.00375162 0.00761357c0.251027,0.410361 0.664312,0.834955 1.18656,0.815039 0.194643,-0.00744806 0.385313,-0.0497641 0.568425,-0.119721zm1.13828 -0.888747c0.185374,-0.24049 0.335494,-0.505089 0.439105,-0.771619 -0.234917,-0.00121376 -0.469559,-0.0178202 -0.70227,-0.0527985 -0.140796,-0.0211304 -0.304212,-0.0450746 -0.476179,-0.077184l-0.0734324 0.0951697 -0.00744806 0.00910319c0.320101,0.118452 0.591873,0.312819 0.751923,0.629885 0.026482,0.0525226 0.0492676,0.108687 0.0683015,0.167443zm2.23293 -2.67887c0.0485503,-0.090094 0.088825,-0.188298 0.119445,-0.294888l0.0762461 -0.357286 0.00115859 -0.0178202c-0.151775,0.134672 -0.191057,0.459904 -0.19685,0.669995zm1.92105 1.02066c0.149734,0.342666 0.350335,0.623541 0.735372,0.853989 0.551267,0.329922 1.1667,0.567929 1.80254,0.742434l0.0552812 -0.0079446c-0.284185,-0.077846 -0.542164,-0.234973 -0.745413,-0.491131 -0.580894,-0.732117 -0.57328,-1.63157 -0.116245,-2.29075l-0.5975 -0.101956c-0.151499,0.219414 -0.341618,0.422664 -0.551543,0.609858 -0.116962,0.264158 -0.328763,0.498193 -0.582494,0.685498zm6.2407 2.06725c0.71529,-0.0144548 1.4249,-0.120493 2.08375,-0.398168 0.133955,-0.0564398 0.26482,-0.160933 0.358941,-0.271054l0.0493779 -0.0734324 -0.252848 -0.0763013 -0.550991 -0.0491572 -1.2761 0.0662602 -0.246172 0.0441918c-0.0438608,0.255386 -0.0983696,0.509061 -0.165954,0.757661zm-3.67664 0.63463c-0.527654,0.0899836 -1.13977,0.330363 -1.21613,0.89636 -0.158782,1.17729 1.28537,2.13351 2.28551,2.27028 1.12979,0.154478 2.44159,-0.383658 3.1347,-1.29436 0.131417,-0.172685 0.344321,-0.515737 0.163857,-0.732227 -0.14543,-0.17445 -0.367383,-0.282254 -0.616258,-0.3489 -0.00364127,0.917822 -0.432043,1.99525 -1.45154,2.02637 -0.41003,0.0125238 -0.599431,-0.355631 -0.646106,-0.711152 -0.635347,0.247607 -1.40139,0.204573 -1.84668,-0.371024 -0.282254,-0.364845 -0.313094,-0.84621 -0.066867,-1.23936 0.115528,-0.184491 0.268682,-0.331797 0.446718,-0.449366 -0.0625086,-0.0152271 -0.124907,-0.0307853 -0.187195,-0.0466194zm1.7301 0.724559c-0.345976,0.0425919 -0.681856,0.128879 -0.995999,0.301122l-0.0445229 0.040054 -0.0013241 0.00165512 0.000772392 0.000772392 0.0265372 0.0206891c0.164354,0.104107 0.407547,0.0713359 0.570191,-0.0164409 0.165457,-0.0892664 0.312819,-0.208877 0.444346,-0.347852zm1.12686 -2.95672l0.0224545 -0.165071 0.0321646 -1.05371 -0.00551708 -0.00904802 -0.0206339 -0.0243855 -0.102066 -0.0779564c-0.0375162,-0.0175443 -0.0760254,-0.0343163 -0.115417,-0.0502606 0.271109,0.390665 0.296047,0.880361 0.0327163,1.32895 -0.287992,0.490634 -0.871699,0.919312 -1.50032,1.11583 0.335273,0.0129651 0.669443,0.048771 0.995447,0.103666 0.017765,-0.0575983 0.0356955,-0.115031 0.0536812,-0.172243 0.0771288,-0.244848 0.238007,-0.789164 0.49902,-0.937242 0.0356404,-0.0202477 0.0718324,-0.0396678 0.108466,-0.0585363zm-2.32473 -1.38501c-0.132796,0.0599155 -0.257041,0.133789 -0.368927,0.22289 -0.363686,0.289537 -0.301233,1.14193 0.218035,1.21365 0.505585,0.0698463 1.08929,-0.245069 1.36702,-0.660395l0.0382886 -0.0838045 0.00479986 -0.0210753 5.51708e-005 -0.000551708 -0.00645499 -0.0108135 -0.0330473 -0.0404954 -0.0601914 -0.0570466c-0.327163,-0.255882 -0.75242,-0.431546 -1.15958,-0.562356zm-3.02943 -1.81793c-0.0138479,-0.00689635 -0.0277509,-0.0136272 -0.0417643,-0.020027 -0.390775,-0.178202 -1.01305,-0.425974 -1.52067,-0.351493 0.0386196,0.00336542 0.0769081,0.00827562 0.114921,0.0153927 0.215221,0.0402195 0.377258,0.127555 0.496813,0.247276 0.310943,0.0190891 0.631651,0.0585914 0.950704,0.108852zm-3.79548 1.54826l-0.606603 -0.0281923 -0.195415 0.0185374 -0.099142 0.0251579 -0.101569 0.259358 0.0231717 0.117348 0.957931 -0.00204132c-0.00066205,-0.0190891 -0.000606879,-0.0383989 5.51708e-005,-0.0577639 0.00364127,-0.105045 0.0107583,-0.216546 0.0215718,-0.332404zm-2.99848 1.87239l-0.287661 -0.575266 0.382003 -0.216214 0.218808 -0.124852c0.0119721,-0.205456 0.185429,-0.374113 0.388182,-0.471711 0.146368,-0.477007 0.385534,-1.17779 0.806432,-1.40906 0.485503,-0.266806 1.1336,-0.262779 1.70169,-0.193374 0.277785,-0.943807 0.834073,-1.8261 1.83664,-1.87051 1.10463,-0.0489917 3.06893,0.301729 3.16807,1.71471 0.177981,0.037792 0.348459,0.0742048 0.50873,0.106756 0.361314,0.0734324 0.74773,0.158506 1.13177,0.269234 1.0467,-0.286999 2.30769,-0.178422 3.11197,0.530081 0.214946,0.189346 0.344873,0.518551 0.339576,0.801301 -0.0052964,0.280268 -0.0157789,0.570853 -0.0354197,0.866182 0.934484,-0.151223 1.9669,-0.0259855 2.79004,0.266365 0.578908,0.205622 0.646657,1.00069 0.377644,1.45673 -0.316074,0.535874 -0.870706,0.886485 -1.46622,1.04731 -0.18907,0.051033 -0.379189,0.094618 -0.56997,0.131362 0.255,0.246172 0.418581,0.570963 0.427519,0.99782 0.015172,0.727427 -0.527212,1.49563 -1.10904,1.89131 -1.06816,0.72649 -2.20165,1.23428 -3.52166,1.05442 -1.59968,-0.217925 -3.47626,-1.73148 -3.21707,-3.513 0.0731014,-0.502661 0.335604,-0.922953 0.704697,-1.2318 -0.859506,-0.346583 -1.58053,-0.900278 -1.97214,-1.77038 -0.0483848,0.00860665 -0.0960524,0.015172 -0.142837,0.0196408 -0.320046,0.164244 -0.773605,0.331356 -1.1347,0.233097 -0.0753082,0.0279164 -0.152271,0.0516399 -0.230724,0.0709497 -0.151334,1.02701 -0.977793,2.00535 -1.88022,2.55049 0.252848,0.00430332 0.506248,0.0720531 0.740393,0.217097 0.265813,0.164685 0.460456,0.520757 0.450966,0.831755 0.0152823,0.00910319 0.0305646,0.0188684 0.0457918,0.0295716 0.325618,0.229235 0.292847,0.67347 0.214228,1.01553l-0.00292405 0.0127445c0.32137,0.876168 0.408319,1.83647 -0.241428,2.59943 -1.34849,1.58329 -4.3836,0.703925 -4.90816,-1.21828 -0.123748,-0.453504 -0.159058,-1.00952 0.14703,-1.40504 0.0202477,-0.026151 0.0408816,-0.0516399 0.0618465,-0.076853 -0.430829,-0.179526 -0.697635,-0.65223 -0.766268,-1.12168 -0.062012,-0.424264 0.0542881,-0.804115 0.50051,-0.947338 0.21489,-0.0689635 0.441201,-0.11288 0.673084,-0.136989 -0.324073,-0.283026 -0.568756,-0.653609 -0.675346,-1.09475 -0.220297,-0.911919 0.673857,-1.31991 1.43417,-1.33679z"/>
  </g>
  <path class="fil1" d="M8.68284 17.7192c-0.290805,0.387741 -0.775481,0.969351 -0.19387,1.35709 2.13257,1.26016 0.678546,-1.16322 -0.581611,0.387741 -0.581611,0.581611 -0.0969351,3.19886 1.26016,2.61725 0.19387,-0.0969351 1.35709,-3.2958 0.19387,-1.74483 0,0 -1.06629,1.26016 -0.775481,1.45403 0.581611,0.290805 0.387741,-1.16322 0.387741,-1.35709 0,-1.26016 -3.2958,-0.387741 -3.2958,0.775481 0,3.00499 6.30078,3.10192 3.78047,-1.35709 -0.775481,-1.26016 -4.26515,-1.26016 -4.26515,-0.872416 0,2.71418 4.65289,-1.16322 3.19886,-2.42338 -0.290805,-0.19387 -3.5866,-0.678546 -2.52031,0.775481 2.13257,3.19886 6.10691,-2.52031 3.5866,-2.52031 -0.0969351,0 -2.32644,0 -1.9387,0.0969351 1.74483,0.872416 4.65289,0.969351 4.65289,-1.9387 0,-1.45403 -3.68354,1.06629 -0.775481,1.9387 1.84177,0.581611 2.81112,-1.74483 1.26016,-1.35709 -0.581611,0.19387 0.19387,1.84177 0.387741,2.22951 1.26016,1.74483 8.53029,2.81112 9.49964,0.872416 0.775481,-1.35709 -3.00499,-0.872416 -3.48967,-0.678546 -0.484676,0.290805 -1.26016,4.07128 -0.872416,4.07128 1.06629,0 1.26016,-2.52031 0.19387,-2.71418 -7.1732,-1.26016 -3.97434,5.2345 -0.0969351,4.07128 2.61725,-0.678546 4.16821,-3.48967 0.0969351,-3.48967 -4.45902,0 -1.55096,3.19886 0,0.484676 0.872416,-1.35709 0.969351,-2.52031 0.969351,-4.07128 0,-1.26016 -4.26515,-1.35709 -4.07128,0.678546 0.290805,2.32644 3.39273,0.581611 2.90805,-0.387741 -0.484676,-1.16322 -5.33143,-1.84177 -6.39772,-1.84177 -1.16322,0 -1.06629,1.9387 -0.678546,2.42338 0.290805,0.484676 5.42837,-2.52031 1.9387,-3.5866 -2.13257,-0.678546 -2.71418,0.581611 -2.90805,2.42338 -0.19387,1.26016 0.969351,-0.581611 -0.19387,-0.678546 -0.387741,0 -1.6479,-0.19387 -1.74483,0.290805 -0.290805,0.678546 -0.775481,1.84177 -0.872416,2.52031 -0.0969351,0.387741 1.26016,-1.45403 1.26016,-1.45403 -0.484676,0 -1.6479,0.775481 -2.03564,0.969351"/>
  <g id="_95768992">
   <path id="_95770624" class="fil5 str1" d="M13.9547 9.09839c0.424429,-1.11837 1.76514,-1.57904 2.8707,-1.72139 0.332018,-0.0427574 0.75893,0.0482745 1.02049,0.268958l0.108521 0.113762 0.0713911 0.103776 0.0505365 0.0913077 0.0139582 0.00667567 0.0604672 0.0215166 0.279054 -0.086232c0.920691,-0.198725 2.65488,-0.800474 3.38545,0.189181 0.171195,0.231883 0.243745,0.489972 0.205953,0.748227 0.35861,-0.0683567 0.722848,-0.0833631 1.03335,0.161816 0.802625,0.633637 0.21798,1.95261 -0.248765,2.58575 -0.588287,0.797936 -2.18929,1.521 -2.84571,0.412016l-0.0932939 -0.165733c-0.39734,0.131362 -0.905795,-0.148189 -1.2958,-0.290254 -0.255882,-0.0931835 -0.50531,-0.218808 -0.776254,-0.246227 -0.676119,-0.0685222 -2.07211,0.272268 -2.43943,-0.582383l-0.143389 -1.00135c-0.0201925,-0.168216 -0.0522468,-0.340018 -0.0712807,-0.505254 -0.0166616,0.0140134 -0.0331577,0.0283026 -0.0493779,0.0427574 -0.0205235,0.0183167 -0.0493779,0.08557 -0.0567156,0.0760254 -0.0682463,0.277178 -0.339742,0.459408 -0.626079,0.411795 -0.300571,-0.0499848 -0.503765,-0.33417 -0.45378,-0.63474zm4.68042 -0.162588c0.512427,0.0731014 0.719538,0.386858 1.0568,0.765716l1.28228 0.321039 -0.312653 0.93807c0.0460676,0.0859562 0.0952249,0.187029 0.160768,0.316515l0.0758047 0.135279 0.0828666 0.0215166 0.160437 0.00314474 0.157071 -0.0333232c0.467352,-0.152437 0.792363,-0.648533 0.954014,-1.08356l0.080108 -0.345425 0.000551708 -0.0788943 -0.159278 0.028744c-0.501889,0.108521 -1.18639,0.370196 -1.49629,-0.222559 -0.128383,-0.24551 -0.0957214,-0.521254 0.0372955,-0.758268l0.137596 -0.192988 0.0342611 -0.0431988 -0.00342059 -0.00143444 -0.03553 -0.0110342c-0.725938,-0.126948 -1.47416,0.0982592 -2.21268,0.240655zm0.289537 1.55637l-0.0260958 -0.0237786 -0.252296 -0.311219 -0.0743703 -0.0951145 -0.0311715 -0.0313922 -0.130589 -0.0030344 -0.265482 -0.0292957 -0.16303 -0.0396678c-0.312046,-0.103611 -0.532233,-0.338804 -0.544702,-0.672863l0.00066205 -0.0314474 -0.398168 -0.00921353 -0.585583 -0.00159995 -0.19067 0.0108135 0.0431436 0.312212 0.0672532 0.584811 0.0678601 0.0133513 0.269123 0.02422 1.7317 0.116521 0.482414 0.186698zm-2.52682 -0.129486l0.00993075 0.0863424 -0.00342059 -0.0528537 -0.00651016 -0.0334887z"/>
  </g>
  <path class="fil1" d="M14.4989 9.18892c0.0969351,-0.581611 1.74483,-1.26016 2.32644,-1.26016 1.06629,0 0.484676,0.387741 1.16322,0.581611 0.290805,0.0969351 2.71418,-0.775481 3.2958,-0.19387 0.581611,0.581611 -0.290805,0.775481 -0.0969351,1.16322 0.19387,0.19387 1.06629,-0.290805 1.45403,-0.0969351 0.775481,0.387741 -0.387741,3.10192 -2.03564,2.52031 -0.19387,-0.0969351 -0.581611,-1.06629 -0.581611,-1.06629 -0.19387,0 -0.19387,0.484676 -0.387741,0.484676 -0.387741,0 -1.26016,-0.581611 -1.84177,-0.581611 -0.387741,0 -1.9387,0.0969351 -1.9387,-0.290805 0,-0.0969351 -0.19387,-1.55096 -0.19387,-1.55096 0,-0.290805 1.45403,-0.19387 1.84177,-0.19387 0.581611,0 0.484676,0.19387 0.484676,0.581611 0,0.19387 0.484676,0.19387 0.581611,0.19387 0.484676,0 0.581611,0.678546 0.969351,0.775481 0.19387,0.0969351 0.969351,0.19387 1.26016,0.290805"/>
  <g id="_96299632">
   <path id="_96297568" class="fil5 str1" d="M28.4957 15.4686c0.556619,-0.728034 1.36448,-1.41094 2.27221,-1.14402 0.0955559,0.028082 0.206284,0.0857906 0.301453,0.161761 0.315853,-0.307908 0.713083,-0.581501 1.14342,-0.400264 0.283357,0.119335 0.465145,0.375217 0.538026,0.667015l0.0376817 0.214063 0.00959972 0.0610189 0.010979 0.00176547 0.107583 0.00496537c0.337094,0.0470055 0.59579,0.124631 0.86221,0.346031l0.153154 0.14703 0.102673 0.116245 0.0523019 0.0577639 0.0364679 0.0176547 0.0514192 0.0143444 0.059419 0.00651016c0.38603,-0.00402747 0.69587,-0.270006 1.04251,0.0238338 0.247386,0.209704 0.201815,0.510275 0.116631,0.786571 -0.188353,0.611072 0.0474469,1.89992 -0.87043,2.00077 -0.304708,0.0334335 -0.414885,0.108797 -0.704256,0.212628l-0.709111 0.189015c-0.415823,0.156299 -0.825356,0.311936 -1.16681,-0.0740393l-0.135444 -0.176326 -0.0869492 -0.155416 -0.0604121 -0.115528 -0.103997 -0.0217925 -0.157678 -0.0197512c-1.00852,-0.0602465 -2.09936,0.240986 -3.07506,-0.000551708 -0.893988,-0.22129 -1.05564,-1.33171 -0.699676,-2.03983 0.168712,-0.335604 0.498082,-0.676725 0.872085,-0.881464zm1.38407 0.148299c0.0189236,0.0222338 0.0375162,0.0454056 0.0556674,0.0701221l0.0819287 0.137541 0.0312267 0.0623982 0.0879975 0.0293509 0.17434 0.0780667c0.163085,0.103832 0.288378,0.217539 0.366721,0.388844 0.0137375,0.00342059 0.0275302,0.00706187 0.041323,0.0108687l0.161926 0.0572673 0.280764 0.0987006 0.137927 0.02422 0.0905905 -0.0557777c0.505585,-0.313039 0.863037,-0.398554 1.44487,-0.415436 -0.231221,-0.0617362 -0.509337,-0.0211304 -0.732338,-0.184546 -0.185815,-0.136217 -0.300571,-0.329094 -0.360376,-0.546081 -0.275247,0.290805 -0.538964,0.778019 -1.01878,0.647375 -0.215718,-0.0587018 -0.368376,-0.240434 -0.425753,-0.452015l-0.0265372 -0.143555 -0.000772392 -0.00882733 -0.212684 0.0898181c-0.0621775,0.0349231 -0.121431,0.0722738 -0.178036,0.111666zm3.66985 2.04778l0.0413781 -0.291909 0.0652119 -0.212518c-0.46189,0.0418195 -1.01172,-0.0937904 -1.41144,0.127445l-0.205953 0.11961c0.210973,0.0835286 0.400154,0.217318 0.555846,0.432374l0.0575432 0.109459 0.0230062 -0.0100963 0.317177 -0.119721 0.408926 -0.0702325 -0.0210201 0.00209649 0.0126341 -0.00479986 0.0530743 -0.0258199 0.0913077 -0.0496537 0.0123031 -0.0062343zm-3.13354 -0.388623l-0.76533 -0.295992 0 -0.0632809 -0.107087 -0.0380127c-0.117624,-0.0493227 -0.229014,-0.117073 -0.313425,-0.21478l-0.103059 -0.152547 -0.0125238 -0.0250476c-0.0179857,0.030675 -0.0356404,0.0617362 -0.0530192,0.0930732 -0.086563,0.20198 -0.279385,0.325729 -0.485283,0.334004 -0.0185374,0.0461228 -0.0325508,0.0936249 -0.0412678,0.14212l-0.0062343 0.0830321 0.0092687 0.0715014 0.0167168 0.0453504 0.0366334 0.0286888 0.0531295 0.0347025 0.0765219 0.0392816 0.696918 -0.0318887 0.99804 -0.0502055z"/>
  </g>
  <path class="fil1" d="M28.5545 16.3621c0.290805,-0.678546 0.484676,-0.678546 0.969351,-1.16322 0.290805,-0.19387 0.969351,-0.581611 1.26016,-0.19387 0,0.0969351 0,0.484676 0.0969351,0.484676 0.0969351,0 0.775481,-1.06629 1.16322,-0.872416 0.387741,0.290805 -0.0969351,0.969351 0.872416,0.969351 0.387741,0 0.678546,0.387741 0.872416,0.581611 0.387741,0.19387 0.775481,0.0969351 1.06629,0 0.19387,0 -0.0969351,0.290805 -0.0969351,0.678546 0,0.19387 -0.0969351,0.581611 -0.0969351,0.775481 0,0.387741 -0.0969351,0.387741 -0.387741,0.387741 -0.387741,0 -0.581611,0.290805 -0.872416,0.290805 -0.290805,0 -0.775481,0.290805 -0.872416,0.290805 -0.290805,0 -0.387741,-0.581611 -0.484676,-0.581611 -0.387741,-0.387741 -2.61725,-0.0969351 -3.39273,-0.0969351 -0.0969351,0 -0.484676,-0.19387 -0.581611,-0.387741 -0.484676,-0.969351 1.06629,-2.22951 1.45403,-1.45403l0.0969351 0.19387c0.0969351,0.19387 0.581611,0.0969351 0.581611,0.484676 0,0.0969351 0,0.387741 0,0.387741l0.0969351 -0.19387c0.0969351,-0.19387 0.581611,0.19387 1.06629,0.19387 0.19387,0 0.678546,-0.484676 1.06629,-0.484676l0.969351 0c0.19387,0 0.969351,-0.290805 0.969351,-0.0969351 0,0.387741 -0.290805,0.872416 -0.290805,1.26016"/>
 </g>
</svg>
