<?xml version="1.0" encoding="UTF-8"?>
<!DOCTYPE svg PUBLIC "-//W3C//DTD SVG 1.1//EN" "http://www.w3.org/Graphics/SVG/1.1/DTD/svg11.dtd">
<!-- Creator: CorelDRAW -->
<svg xmlns="http://www.w3.org/2000/svg" xml:space="preserve" width="300px" height="300px" style="shape-rendering:geometricPrecision; text-rendering:geometricPrecision; image-rendering:optimizeQuality; fill-rule:evenodd; clip-rule:evenodd"
viewBox="0 0 20.8683 21.2325"
 xmlns:xlink="http://www.w3.org/1999/xlink">
 <defs>
  <style type="text/css">
   <![CDATA[
    .str0 {stroke:#1F1A17;stroke-width:1.13377;stroke-linecap:round;stroke-linejoin:round}
    .fil0 {fill:#605D5C}
    .fil1 {fill:#EC982C;fill-rule:nonzero}
   ]]>
  </style>
 </defs>
 <g id="Слой_x0020_1">
  <metadata id="CorelCorpID_0Corel-Layer"/>
  <path class="fil0 str0" d="M10.4342 0.566917l9.86726 0 0 20.0987 -19.7345 0 0 -12.0161c0,-4.44549 4.44026,-8.08266 9.86732,-8.08266l-2.98613e-005 2.98613e-005z"/>
  <path class="fil1" d="M1.26042 14.1429l1.28974 -1.07859 1.89363 2.2643c0.397365,0.475183 0.657158,0.872548 0.780426,1.19138 0.123238,0.3188 0.130464,0.670327 0.0197981,1.05623 -0.111472,0.384913 -0.365144,0.743696 -0.762748,1.0762 -0.420866,0.351975 -0.793714,0.568201 -1.12019,0.646796 -0.326653,0.0803568 -0.643751,0.0637539 -0.952129,-0.0507941 -0.308527,-0.112786 -0.60947,-0.32089 -0.901006,-0.624162l1.08931 -1.19607c0.155219,0.181646 0.286042,0.304615 0.390736,0.368668 0.104634,0.0640824 0.216047,0.0928389 0.333223,0.0871652 0.0802673,-0.00453892 0.164685,-0.0454489 0.255852,-0.121715 0.143514,-0.120013 0.20461,-0.261735 0.183289,-0.425166 -0.0231127,-0.16361 -0.14002,-0.372341 -0.351677,-0.625446l-2.14825 -2.56879zm4.25369 1.17884l1.16068 -1.10084c0.192426,0.176869 0.373267,0.282727 0.542282,0.319337 0.272992,0.0584685 0.532816,-0.0171105 0.779112,-0.223064 0.183289,-0.153278 0.289177,-0.31438 0.316888,-0.484172 0.0267259,-0.169045 -0.00734589,-0.310259 -0.102215,-0.423732 -0.0900319,-0.10765 -0.217659,-0.165701 -0.384047,-0.171553 -0.166387,-0.00585282 -0.452877,0.0969299 -0.86135,0.30999 -0.670626,0.344928 -1.21333,0.513734 -1.62983,0.504418 -0.418387,-0.00767436 -0.763435,-0.173942 -1.03592,-0.499789 -0.179228,-0.214315 -0.286669,-0.468853 -0.321487,-0.762748 -0.0348183,-0.293865 0.026487,-0.598899 0.184065,-0.916892 0.158384,-0.317038 0.45431,-0.6568 0.887777,-1.01929 0.532368,-0.445232 1.02141,-0.686124 1.46613,-0.721838 0.444725,-0.035744 0.874101,0.140736 1.28831,0.52768l-1.15393 1.08528c-0.188515,-0.160385 -0.370728,-0.240354 -0.545865,-0.238921 -0.173345,0.00158265 -0.351557,0.0781471 -0.532875,0.229813 -0.150322,0.125686 -0.23689,0.250775 -0.258987,0.378044 -0.0229335,0.126284 0.00412086,0.235516 0.0803568,0.326653 0.0551539,0.0659338 0.13566,0.0991396 0.242295,0.100573 0.107322,0.00418059 0.293059,-0.0654262 0.560646,-0.208492 0.663817,-0.349109 1.16925,-0.562528 1.51645,-0.641929 0.347198,-0.079461 0.652799,-0.0746533 0.91743,0.0171404 0.263825,0.0908382 0.491965,0.249402 0.68254,0.477274 0.223034,0.266692 0.354364,0.575428 0.395095,0.923671 0.041567,0.349228 -0.0222766,0.692604 -0.190665,1.03117 -0.167403,0.337762 -0.453295,0.675732 -0.856722,1.01311 -0.707893,0.592001 -1.31211,0.866606 -1.81327,0.821007 -0.501342,-0.0438066 -0.945051,-0.261048 -1.33289,-0.651903zm3.67674 -4.2679c-0.5685,-0.679763 -0.821216,-1.36819 -0.759314,-2.06264 0.0620817,-0.696247 0.431496,-1.3265 1.10738,-1.89175 0.69335,-0.579847 1.38336,-0.840507 2.07005,-0.781979 0.684929,0.0583789 1.30933,0.422777 1.86971,1.09284 0.407129,0.486829 0.658801,0.955264 0.755253,1.4036 0.0964222,0.448338 0.0625595,0.888643 -0.101618,1.32092 -0.165133,0.433109 -0.47796,0.841343 -0.940512,1.22817 -0.46936,0.392527 -0.920625,0.643034 -1.35391,0.75158 -0.433079,0.106784 -0.880193,0.078595 -1.34307,-0.0847166 -0.461865,-0.164148 -0.896855,-0.489218 -1.30395,-0.976018zm1.29264 -1.07113c0.351975,0.420866 0.681734,0.657576 0.991964,0.711267 0.309393,0.0527052 0.599765,-0.033594 0.868397,-0.258241 0.276367,-0.231127 0.415252,-0.500536 0.416506,-0.806435 0.00044792,-0.306855 -0.192994,-0.693858 -0.582266,-1.15931 -0.328445,-0.392736 -0.647185,-0.612336 -0.956936,-0.661458 -0.308886,-0.0481962 -0.59863,0.0408503 -0.870129,0.267916 -0.258928,0.216525 -0.391183,0.482022 -0.394199,0.797686 -0.00382225,0.314649 0.17227,0.68481 0.526664,1.10857zm1.98112 -5.2097l1.20246 -1.00558 3.49488 0.99271 -1.92683 -2.30404 1.21312 -1.01454 3.48309 4.16497 -1.21312 1.01451 -3.47254 -0.981751 1.91226 2.28663 -1.21022 1.01206 -3.48309 -4.16497z"/>
 </g>
</svg>
