<?xml version="1.0" encoding="UTF-8"?>
<!DOCTYPE svg PUBLIC "-//W3C//DTD SVG 1.1//EN" "http://www.w3.org/Graphics/SVG/1.1/DTD/svg11.dtd">
<!-- Creator: CorelDRAW -->
<svg xmlns="http://www.w3.org/2000/svg" xml:space="preserve" width="300px" height="300px" style="shape-rendering:geometricPrecision; text-rendering:geometricPrecision; image-rendering:optimizeQuality; fill-rule:evenodd; clip-rule:evenodd"
viewBox="0 0 46.6944 45.5241"
 xmlns:xlink="http://www.w3.org/1999/xlink">
 <defs>
  <style type="text/css">
   <![CDATA[
    .str1 {stroke:#1F1A17;stroke-width:0.551506}
    .str0 {stroke:#1F1A17;stroke-width:2.30392;stroke-linecap:round;stroke-linejoin:round}
    .fil50 {fill:none}
    .fil101 {fill:#28166F}
    .fil65 {fill:#00438C}
    .fil66 {fill:#00468E}
    .fil67 {fill:#004890}
    .fil68 {fill:#004B92}
    .fil69 {fill:#004D94}
    .fil70 {fill:#004F96}
    .fil71 {fill:#005298}
    .fil72 {fill:#00549A}
    .fil73 {fill:#00569C}
    .fil74 {fill:#00589E}
    .fil75 {fill:#005BA0}
    .fil76 {fill:#005DA2}
    .fil77 {fill:#005FA4}
    .fil78 {fill:#0062A6}
    .fil79 {fill:#0064A8}
    .fil80 {fill:#0066AA}
    .fil81 {fill:#0068AD}
    .fil82 {fill:#006AAF}
    .fil83 {fill:#006CB1}
    .fil84 {fill:#006EB3}
    .fil85 {fill:#0071B6}
    .fil86 {fill:#0073B8}
    .fil87 {fill:#0075BB}
    .fil88 {fill:#0077BD}
    .fil89 {fill:#0079BF}
    .fil90 {fill:#007BC2}
    .fil91 {fill:#007EC5}
    .fil92 {fill:#0080C7}
    .fil93 {fill:#0082C9}
    .fil94 {fill:#0084CC}
    .fil95 {fill:#0087CF}
    .fil96 {fill:#0089D2}
    .fil97 {fill:#008BD5}
    .fil98 {fill:#008ED7}
    .fil99 {fill:#0090DA}
    .fil0 {fill:#00923F}
    .fil100 {fill:#0093DD}
    .fil1 {fill:#00943F}
    .fil2 {fill:#00953E}
    .fil3 {fill:#00973E}
    .fil4 {fill:#00983D}
    .fil5 {fill:#009A3D}
    .fil6 {fill:#009B3C}
    .fil7 {fill:#009D3C}
    .fil8 {fill:#009E3B}
    .fil9 {fill:#00A03B}
    .fil10 {fill:#00A13A}
    .fil11 {fill:#00A33A}
    .fil12 {fill:#00A439}
    .fil13 {fill:#00A639}
    .fil64 {fill:#05418A}
    .fil63 {fill:#0D3E88}
    .fil14 {fill:#0FA738}
    .fil62 {fill:#123B86}
    .fil61 {fill:#173984}
    .fil60 {fill:#1B3582}
    .fil59 {fill:#1D3380}
    .fil58 {fill:#20307E}
    .fil57 {fill:#222D7C}
    .fil15 {fill:#22A937}
    .fil56 {fill:#232A7A}
    .fil55 {fill:#252678}
    .fil54 {fill:#262276}
    .fil53 {fill:#271E74}
    .fil51 {fill:#28166F}
    .fil52 {fill:#281A71}
    .fil16 {fill:#2DAA37}
    .fil17 {fill:#36AC36}
    .fil18 {fill:#3FAE35}
    .fil19 {fill:#46AF34}
    .fil20 {fill:#4EB133}
    .fil21 {fill:#54B332}
    .fil22 {fill:#5AB431}
    .fil23 {fill:#5FB630}
    .fil24 {fill:#65B82E}
    .fil25 {fill:#6BBA2D}
    .fil26 {fill:#70BC2B}
    .fil27 {fill:#76BD2A}
    .fil28 {fill:#7BBF28}
    .fil29 {fill:#81C126}
    .fil30 {fill:#87C424}
    .fil31 {fill:#8CC621}
    .fil32 {fill:#91C81F}
    .fil33 {fill:#96CA1C}
    .fil34 {fill:#9BCC18}
    .fil35 {fill:#A1CF13}
    .fil36 {fill:#A6D10D}
    .fil37 {fill:#ADD303}
    .fil38 {fill:#B3D600}
    .fil39 {fill:#B8D800}
    .fil40 {fill:#C0DB00}
    .fil41 {fill:#C6DE00}
    .fil42 {fill:#CCE000}
    .fil43 {fill:#D2E300}
    .fil44 {fill:#DAE600}
    .fil45 {fill:#E2E900}
    .fil46 {fill:#E9EC00}
    .fil47 {fill:#F1EF00}
    .fil48 {fill:#F8F200}
    .fil49 {fill:#FFF500}
    .fil151 {fill:#974578;fill-rule:nonzero}
    .fil150 {fill:#9A4879;fill-rule:nonzero}
    .fil149 {fill:#9C4A79;fill-rule:nonzero}
    .fil148 {fill:#9D4D79;fill-rule:nonzero}
    .fil147 {fill:#9E4F79;fill-rule:nonzero}
    .fil146 {fill:#9F5179;fill-rule:nonzero}
    .fil145 {fill:#A15379;fill-rule:nonzero}
    .fil144 {fill:#A25678;fill-rule:nonzero}
    .fil143 {fill:#A35878;fill-rule:nonzero}
    .fil142 {fill:#A55A78;fill-rule:nonzero}
    .fil141 {fill:#A65C77;fill-rule:nonzero}
    .fil140 {fill:#A75E77;fill-rule:nonzero}
    .fil139 {fill:#A86076;fill-rule:nonzero}
    .fil138 {fill:#AA6275;fill-rule:nonzero}
    .fil137 {fill:#AB6475;fill-rule:nonzero}
    .fil136 {fill:#AC6674;fill-rule:nonzero}
    .fil135 {fill:#AD6873;fill-rule:nonzero}
    .fil134 {fill:#AF6B72;fill-rule:nonzero}
    .fil133 {fill:#B16D71;fill-rule:nonzero}
    .fil132 {fill:#B36F71;fill-rule:nonzero}
    .fil131 {fill:#B5726F;fill-rule:nonzero}
    .fil130 {fill:#B7746E;fill-rule:nonzero}
    .fil129 {fill:#B9766D;fill-rule:nonzero}
    .fil128 {fill:#BB786C;fill-rule:nonzero}
    .fil127 {fill:#BD7B6B;fill-rule:nonzero}
    .fil126 {fill:#C17E6A;fill-rule:nonzero}
    .fil125 {fill:#C38068;fill-rule:nonzero}
    .fil124 {fill:#C58267;fill-rule:nonzero}
    .fil123 {fill:#C78565;fill-rule:nonzero}
    .fil122 {fill:#C98764;fill-rule:nonzero}
    .fil121 {fill:#CA8A62;fill-rule:nonzero}
    .fil120 {fill:#CC8C60;fill-rule:nonzero}
    .fil119 {fill:#CE8E5E;fill-rule:nonzero}
    .fil118 {fill:#D1925C;fill-rule:nonzero}
    .fil117 {fill:#D4955A;fill-rule:nonzero}
    .fil116 {fill:#D69856;fill-rule:nonzero}
    .fil115 {fill:#D99A53;fill-rule:nonzero}
    .fil114 {fill:#DB9D51;fill-rule:nonzero}
    .fil113 {fill:#DDA04E;fill-rule:nonzero}
    .fil112 {fill:#E0A34A;fill-rule:nonzero}
    .fil111 {fill:#E2A647;fill-rule:nonzero}
    .fil110 {fill:#E5AA43;fill-rule:nonzero}
    .fil109 {fill:#E7AD3E;fill-rule:nonzero}
    .fil108 {fill:#E9AF38;fill-rule:nonzero}
    .fil107 {fill:#ECB32F;fill-rule:nonzero}
    .fil106 {fill:#EEB61C;fill-rule:nonzero}
    .fil105 {fill:#F1B900;fill-rule:nonzero}
    .fil104 {fill:#F3BD00;fill-rule:nonzero}
    .fil103 {fill:#F6C000;fill-rule:nonzero}
    .fil102 {fill:#F8C300;fill-rule:nonzero}
   ]]>
  </style>
    <clipPath id="id0">
     <path d="M25.3398 1.26074l20.2064 1.95674 -3.98546 41.1583 -40.4124 -3.91321 2.38278 -24.6068c0.881582,-9.10343 10.6956,-15.6713 21.809,-14.5951l0 0 -0.000275753 0z"/>
    </clipPath>
    <clipPath id="id1">
     <path d="M31.1543 12.4384c6.10628,4.41922 7.70785,12.6328 3.57569,18.3431 -4.13188,5.71085 -12.4354,6.7576 -18.5422,2.33894 -6.10683,-4.41922 -7.70785,-12.6328 -3.57569,-18.3431 4.13188,-5.71085 12.4345,-6.7576 18.5422,-2.33894zm-5.25337 7.25892c2.06015,1.491 2.73216,4.07977 1.50092,5.78199 -1.23151,1.70167 -3.90108,1.87264 -5.96095,0.382194 -2.06015,-1.491 -2.73244,-4.08004 -1.5012,-5.78199 1.23151,-1.70195 3.90135,-1.87264 5.96123,-0.382194z"/>
    </clipPath>
    <clipPath id="id2" style="clip-rule:nonzero">
     <path d="M9.48894 25.1459l3.19984 1.13969 -0.470159 5.2291 2.93539 -4.35111 3.18908 1.1361 -2.80358 7.87165 -1.9868 -0.707582 2.13791 -6.00259 -3.67937 5.45357 -1.79819 -0.640574 0.602245 -6.54941 -2.13791 6.00259 -1.99204 -0.709513 2.80358 -7.87192zm6.69418 13.7l2.80358 -7.87192 2.04554 0.72854 -0.300295 0.843253c0.410872,-0.25452 0.754736,-0.402324 1.03545,-0.442859 0.378885,-0.0551506 0.761078,-0.0140634 1.14768,0.123537 0.762457,0.271617 1.24833,0.775142 1.45818,1.50671 0.208745,0.731297 0.160488,1.5274 -0.145873,2.38719 -0.337522,0.947487 -0.822296,1.59054 -1.45515,1.92917 -0.632026,0.336419 -1.29632,0.380815 -1.98901,0.134016 -0.337522,-0.119953 -0.625132,-0.286507 -0.861452,-0.498561 -0.235493,-0.21426 -0.424108,-0.473468 -0.561985,-0.776521l-0.970099 2.72361 -2.20658 -0.786172zm3.97498 -4.22454c-0.160764,0.450856 -0.186685,0.819538 -0.0739018,1.10577 0.111128,0.285129 0.312152,0.480362 0.601693,0.583493 0.254796,0.0909985 0.504628,0.0620444 0.751703,-0.087138 0.247075,-0.147528 0.45968,-0.472365 0.637817,-0.972857 0.164625,-0.461886 0.195785,-0.83305 0.0929288,-1.11322 -0.0998226,-0.281268 -0.281544,-0.467953 -0.537994,-0.559227 -0.280441,-0.0998226 -0.552333,-0.0727988 -0.815126,0.0794169 -0.264999,0.151664 -0.482844,0.474295 -0.657119,0.963757zm8.02634 -0.251487l-1.93551 -1.1066c0.40646,-0.59673 0.916603,-0.98499 1.53071,-1.16064 0.614102,-0.17593 1.36774,-0.105613 2.262,0.212881 1.02828,0.3662 1.70277,0.821193 2.02458,1.36746 0.321528,0.546267 0.378885,1.10991 0.172621,1.68899 -0.121331,0.340831 -0.324286,0.615481 -0.607484,0.824502 -0.28568,0.210124 -0.65188,0.352137 -1.10163,0.425487 0.277683,0.183652 0.478983,0.354618 0.605002,0.51097 0.202678,0.253693 0.330628,0.539097 0.381366,0.854559 0.0512901,0.313531 0.0132361,0.652983 -0.117471,1.01946 -0.16297,0.458302 -0.440102,0.853456 -0.828362,1.18987 -0.389915,0.334213 -0.851801,0.535237 -1.38373,0.601969 -0.531652,0.0667322 -1.16395,-0.0306086 -1.89911,-0.292298 -0.714752,-0.25452 -1.24916,-0.539924 -1.60406,-0.854283 -0.354067,-0.316289 -0.605278,-0.684419 -0.757769,-1.10218 -0.150285,-0.419145 -0.210675,-0.898955 -0.178412,-1.44109l2.28765 0.488359c-0.0705928,0.47071 -0.0454993,0.824502 0.0750048,1.05944 0.119401,0.23246 0.319598,0.400945 0.598384,0.500216 0.293401,0.10451 0.577427,0.0835532 0.847941,-0.0614929 0.270789,-0.145322 0.472089,-0.397636 0.599487,-0.755012 0.12988,-0.364821 0.135119,-0.68111 0.0198542,-0.949418 -0.117471,-0.266929 -0.336419,-0.458302 -0.65905,-0.573291 -0.170415,-0.0606657 -0.422454,-0.100926 -0.753082,-0.123537l0.667874 -1.52161c0.116644,0.0617687 0.206815,0.10451 0.274374,0.128501 0.287886,0.10258 0.558676,0.0956863 0.816505,-0.019027 0.255072,-0.11361 0.428244,-0.297813 0.516761,-0.546818 0.0857592,-0.240457 0.0827259,-0.458026 -0.00909985,-0.652156 -0.0923773,-0.193854 -0.263068,-0.33504 -0.514004,-0.424384 -0.258381,-0.0921015 -0.495252,-0.0876895 -0.711443,0.0088241 -0.216742,0.0981681 -0.422178,0.332834 -0.619893,0.702343z"/>
    </clipPath>
 </defs>
 <g id="Слой_x0020_1">
  <metadata id="CorelCorpID_0Corel-Layer"/>
  <g>
   <g style="clip-path:url(#id0)">
    <polygon class="fil0" points="0.977545,-20.4678 70.467,4.28244 45.7168,73.7719 -23.7727,49.0217 0.977545,-20.4678 1.87264,-18.5824 68.582,5.17781 44.822,71.8866 -21.8873,48.1266 1.87264,-18.5824 "/>
    <polygon id="1" class="fil1" points="1.42509,-19.525 69.5242,4.72999 45.2693,72.8291 -22.8299,48.5742 1.42509,-19.525 2.32019,-17.6399 67.6395,5.62509 44.3745,70.9444 -20.9448,47.6791 2.32019,-17.6399 "/>
    <polygon id="12" class="fil2" points="1.87264,-18.5827 68.582,5.17754 44.8217,71.8869 -21.8876,48.1266 1.87264,-18.5827 2.76746,-16.6977 66.6972,6.07263 43.9272,70.0018 -20.0026,47.2318 2.76746,-16.6977 "/>
    <polygon id="123" class="fil3" points="2.31991,-17.6405 67.6397,5.62481 44.3745,70.9446 -20.9454,47.6794 2.31991,-17.6405 3.215,-15.7551 65.7547,6.5199 43.4796,69.0596 -19.06,46.7843 3.215,-15.7551 "/>
    <polygon id="1234" class="fil4" points="2.76746,-16.6979 66.6972,6.07236 43.9269,70.0021 -20.0028,47.2318 2.76746,-16.6979 3.66228,-14.8129 64.8124,6.96718 43.0324,68.1171 -18.1178,46.337 3.66228,-14.8129 "/>
    <polygon id="12345" class="fil5" points="3.21473,-15.7557 65.755,6.51963 43.4796,69.0599 -19.0606,46.7845 3.21473,-15.7557 4.10955,-13.8704 63.8699,7.41472 42.5851,67.1748 -17.1753,45.8897 4.10955,-13.8704 "/>
    <polygon id="123456" class="fil6" points="3.662,-14.8132 64.8124,6.9669 43.0324,68.1173 -18.1181,46.3373 3.662,-14.8132 4.55709,-12.9281 62.9277,7.86199 42.1375,66.2323 -16.233,45.4422 4.55709,-12.9281 "/>
    <polygon id="1234567" class="fil7" points="4.10955,-13.8709 63.8702,7.41445 42.5848,67.1751 -17.1758,45.8897 4.10955,-13.8709 5.00437,-11.9856 61.9851,8.30954 41.6903,65.29 -15.2905,44.9949 5.00437,-11.9856 "/>
    <polygon id="12345678" class="fil8" points="4.55682,-12.9284 62.9277,7.86172 42.1375,66.2326 -16.2333,45.4424 4.55682,-12.9284 5.45191,-11.0434 61.0429,8.75681 41.2427,64.3475 -14.3483,44.5474 5.45191,-11.0434 "/>
    <polygon id="123456789" class="fil9" points="5.00437,-11.9862 61.9854,8.30927 41.69,65.2903 -15.2911,44.9949 5.00437,-11.9862 5.89918,-10.1008 60.1004,9.20408 40.7955,63.4053 -13.4057,44.1001 5.89918,-10.1008 "/>
    <polygon id="12345678910" class="fil10" points="5.45164,-11.0436 61.0429,8.75654 41.2427,64.3478 -14.3485,44.5476 5.45164,-11.0436 6.34646,-9.15859 59.1581,9.65163 40.3482,62.4628 -12.4635,43.6528 6.34646,-9.15859 "/>
    <polygon id="1234567891011" class="fil11" points="5.89891,-10.1014 60.1006,9.20381 40.7955,63.4055 -13.4063,44.1004 5.89891,-10.1014 6.794,-8.21634 58.2159,10.0989 39.9006,61.5205 -11.5212,43.2053 6.794,-8.21634 "/>
    <polygon id="123456789101112" class="fil12" points="6.34646,-9.15886 59.1581,9.65136 40.3479,62.463 -12.4638,43.6528 6.34646,-9.15886 7.24127,-7.27381 57.2734,10.5462 39.4534,60.578 -10.5787,42.758 7.24127,-7.27381 "/>
    <polygon id="12345678910111213" class="fil13" points="6.79373,-8.21661 58.2159,10.0986 39.9006,61.5208 -11.5215,43.2055 6.79373,-8.21661 7.68882,-6.33157 56.3311,10.9937 39.0058,59.6357 -9.63647,42.3104 7.68882,-6.33157 "/>
    <polygon id="1234567891011121314" class="fil14" points="7.24127,-7.27409 57.2734,10.5462 39.4531,60.5783 -10.579,42.758 7.24127,-7.27409 8.13609,-5.38904 55.3886,11.441 38.5585,58.6932 -8.69394,41.8632 8.13609,-5.38904 "/>
    <polygon id="123456789101112131415" class="fil15" points="7.68855,-6.33184 56.3311,10.9934 39.0058,59.636 -9.63674,42.3107 7.68855,-6.33184 8.58336,-4.44679 54.4463,11.8885 38.1113,57.751 -7.75169,41.4159 8.58336,-4.44679 "/>
    <polygon id="12345678910111213141516" class="fil16" points="8.13582,-5.38932 55.3886,11.4407 38.5585,58.6935 -8.69422,41.8634 8.13582,-5.38932 9.03091,-3.50399 53.5035,12.3361 37.6637,56.8082 -6.80889,40.9684 9.03091,-3.50399 "/>
    <polygon id="1234567891011121314151617" class="fil17" points="8.58336,-4.44679 54.4461,11.8883 38.111,57.751 -7.75169,41.4159 8.58336,-4.44679 9.47846,-2.56147 52.561,12.7834 37.2162,55.8659 -5.86637,40.5208 9.47846,-2.56147 "/>
    <polygon id="123456789101112131415161718" class="fil18" points="9.03091,-3.50427 53.5035,12.3358 37.6635,56.8084 -6.80917,40.9684 9.03091,-3.50427 9.92573,-1.61922 51.6188,13.2306 36.7689,54.9234 -4.92412,40.0735 9.92573,-1.61922 "/>
    <polygon id="12345678910111213141516171819" class="fil19" points="9.47818,-2.56202 52.5613,12.7831 37.2162,55.8662 -5.86692,40.5211 9.47818,-2.56202 10.3733,-0.676974 50.6762,13.6782 36.3214,53.9811 -3.98187,39.626 10.3733,-0.676974 "/>
    <polygon id="1234567891011121314151617181920" class="fil20" points="9.92573,-1.6195 51.6188,13.2306 36.7686,54.9237 -4.9244,40.0735 9.92573,-1.6195 10.8205,0.26555 49.734,14.1254 35.8741,53.0386 -3.03935,39.1787 10.8205,0.26555 "/>
    <polygon id="123456789101112131415161718192021" class="fil21" points="10.373,-0.677249 50.6765,13.6779 36.3214,53.9814 -3.98215,39.6263 10.373,-0.677249 11.2678,1.2078 48.7917,14.573 35.4268,52.0964 -2.0971,38.7314 11.2678,1.2078 "/>
    <polygon id="12345678910111213141516171819202122" class="fil22" points="10.8203,0.265274 49.734,14.1252 35.8741,53.0389 -3.03963,39.179 10.8203,0.265274 11.7154,2.15032 47.8492,15.0203 34.9793,51.1538 -1.15458,38.2839 11.7154,2.15032 "/>
    <polygon id="1234567891011121314151617181920212223" class="fil23" points="11.2678,1.20752 48.7917,14.5727 35.4265,52.0966 -2.09738,38.7314 11.2678,1.20752 12.1626,3.09257 46.907,15.4675 34.532,50.2116 -0.21233,37.8366 12.1626,3.09257 "/>
    <polygon id="123456789101112131415161718192021222324" class="fil24" points="11.7151,2.15005 47.8492,15.02 34.9793,51.1541 -1.15485,38.2842 11.7151,2.15005 12.6102,4.03509 45.9644,15.9151 34.0845,49.2693 0.729918,37.3894 12.6102,4.03509 "/>
    <polygon id="12345678910111213141516171819202122232425" class="fil25" points="12.1624,3.09229 46.907,15.4673 34.532,50.2119 -0.212606,37.8369 12.1624,3.09229 13.0575,4.97734 45.0222,16.3624 33.6372,48.3271 1.67244,36.9421 13.0575,4.97734 "/>
    <polygon id="1234567891011121314151617181920212223242526" class="fil26" points="12.6099,4.03482 45.9644,15.9148 34.0845,49.2693 0.729918,37.3894 12.6099,4.03482 13.5047,5.91987 44.0797,16.8099 33.1896,47.3849 2.61469,36.4948 13.5047,5.91987 "/>
    <polygon id="123456789101112131415161718192021222324252627" class="fil27" points="13.0572,4.97707 45.0222,16.3621 33.6372,48.3271 1.67217,36.9421 13.0572,4.97707 13.9523,6.86211 43.1374,17.2572 32.7424,46.4423 3.55721,36.0473 13.9523,6.86211 "/>
    <polygon id="12345678910111213141516171819202122232425262728" class="fil28" points="13.5047,5.91931 44.0799,16.8096 33.1896,47.3849 2.61441,36.4945 13.5047,5.91931 14.3995,7.80464 42.1949,17.7044 32.2951,45.5001 4.49946,35.6 14.3995,7.80464 "/>
    <polygon id="1234567891011121314151617181920212223242526272829" class="fil29" points="13.952,6.86184 43.1374,17.2569 32.7424,46.4423 3.55694,36.0473 13.952,6.86184 14.8468,8.74689 41.2527,18.152 31.8475,44.5576 5.44199,35.1524 14.8468,8.74689 "/>
    <polygon id="123456789101112131415161718192021222324252627282930" class="fil30" points="14.3993,7.80409 42.1952,17.7042 32.2951,45.5001 4.49919,35.6 14.3993,7.80409 15.2944,9.68941 40.3101,18.5993 31.4003,43.6153 6.38423,34.7052 15.2944,9.68941 "/>
    <polygon id="12345678910111213141516171819202122232425262728293031" class="fil31" points="14.8468,8.74661 41.2527,18.1517 31.8475,44.5576 5.44171,35.1524 14.8468,8.74661 15.7416,10.6317 39.3679,19.0468 30.9527,42.6728 7.32676,34.2579 15.7416,10.6317 "/>
    <polygon id="1234567891011121314151617181920212223242526272829303132" class="fil32" points="15.2941,9.68886 40.3104,18.599 31.4003,43.6153 6.38396,34.7052 15.2941,9.68886 16.1892,11.5742 38.4254,19.4941 30.5055,41.7305 8.26901,33.8104 16.1892,11.5742 "/>
    <polygon id="123456789101112131415161718192021222324252627282930313233" class="fil33" points="15.7416,10.6314 39.3679,19.0465 30.9527,42.6728 7.32648,34.2576 15.7416,10.6314 16.6367,12.5167 37.4828,19.9416 30.0579,40.7877 9.21181,33.3628 16.6367,12.5167 "/>
    <polygon id="12345678910111213141516171819202122232425262728293031323334" class="fil34" points="16.1892,11.5742 38.4251,19.4941 30.5052,41.73 8.26928,33.8101 16.1892,11.5742 17.084,13.4592 36.5403,20.3889 29.6106,39.8455 10.1541,32.9155 17.084,13.4592 "/>
    <polygon id="1234567891011121314151617181920212223242526272829303132333435" class="fil35" points="16.6365,12.5164 37.4828,19.9414 30.0579,40.7877 9.21153,33.3628 16.6365,12.5164 17.5313,14.4015 35.5981,20.8365 29.1631,38.903 11.0966,32.468 17.5313,14.4015 "/>
    <polygon id="123456789101112131415161718192021222324252627282930313233343536" class="fil36" points="17.0837,13.4587 36.5406,20.3886 29.6106,39.8455 10.1538,32.9155 17.0837,13.4587 17.9788,15.344 34.6555,21.2837 28.7158,37.9607 12.0388,32.0207 17.9788,15.344 "/>
    <polygon id="12345678910111213141516171819202122232425262728293031323334353637" class="fil37" points="17.5313,14.4012 35.5981,20.8362 29.1631,38.903 11.0963,32.468 17.5313,14.4012 18.4261,16.2863 33.7133,21.7313 28.2683,37.0182 12.9813,31.5734 18.4261,16.2863 "/>
    <polygon id="1234567891011121314151617181920212223242526272829303132333435363738" class="fil38" points="17.9785,15.3435 34.6558,21.2834 28.7158,37.9607 12.0386,32.0207 17.9785,15.3435 18.8736,17.2288 32.7708,22.1785 27.821,36.0759 13.9236,31.1259 18.8736,17.2288 "/>
    <polygon id="123456789101112131415161718192021222324252627282930313233343536373839" class="fil39" points="18.4261,16.286 33.7133,21.731 28.2683,37.0182 12.9811,31.5732 18.4261,16.286 19.3209,18.171 31.8285,22.6258 27.3737,35.1334 14.8661,30.6786 19.3209,18.171 "/>
    <polygon id="12345678910111213141516171819202122232425262728293031323334353637383940" class="fil40" points="18.8734,17.2282 32.771,22.1783 27.821,36.0759 13.9233,31.1259 18.8734,17.2282 19.7682,19.1135 30.886,23.0734 26.9262,34.1912 15.8084,30.2314 19.7682,19.1135 "/>
    <polygon id="1234567891011121314151617181920212223242526272829303132333435363738394041" class="fil41" points="19.3206,18.1707 31.8285,22.6255 27.3737,35.1334 14.8658,30.6786 19.3206,18.1707 20.2157,20.0558 29.9437,23.5206 26.4789,33.2486 16.7509,29.7838 20.2157,20.0558 "/>
    <polygon id="123456789101112131415161718192021222324252627282930313233343536373839404142" class="fil42" points="19.7682,19.113 30.8863,23.0731 26.9262,34.1912 15.8081,30.2311 19.7682,19.113 20.663,20.998 29.0012,23.9682 26.0314,32.3064 17.6931,29.3365 20.663,20.998 "/>
    <polygon id="12345678910111213141516171819202122232425262728293031323334353637383940414243" class="fil43" points="20.2155,20.0555 29.9437,23.5204 26.4789,33.2486 16.7506,29.7838 20.2155,20.0555 21.1105,21.9406 28.059,24.4154 25.5841,31.3639 18.6357,28.889 21.1105,21.9406 "/>
    <polygon id="1234567891011121314151617181920212223242526272829303132333435363738394041424344" class="fil44" points="20.663,20.9978 29.0015,23.9679 26.0314,32.3064 17.6929,29.3363 20.663,20.9978 21.5578,22.8828 27.1167,24.8627 25.1368,30.4216 19.5779,28.4417 21.5578,22.8828 "/>
    <polygon id="123456789101112131415161718192021222324252627282930313233343536373839404142434445" class="fil45" points="21.1103,21.9403 28.059,24.4152 25.5841,31.3639 18.6354,28.889 21.1103,21.9403 22.0051,23.8253 26.1742,25.3103 24.6893,29.4791 20.5204,27.9944 22.0051,23.8253 "/>
    <polygon id="12345678910111213141516171819202122232425262728293031323334353637383940414243444546" class="fil46" points="21.5575,22.8825 27.1167,24.8624 25.1368,30.4216 19.5776,28.4417 21.5575,22.8825 22.4526,24.7676 25.232,25.7575 24.242,28.5369 21.4627,27.5469 22.4526,24.7676 "/>
    <polygon id="1234567891011121314151617181920212223242526272829303132333435363738394041424344454647" class="fil47" points="22.0051,23.8251 26.1742,25.31 24.6893,29.4791 20.5202,27.9942 22.0051,23.8251 22.8999,25.7101 24.2894,26.2051 23.7945,27.5943 22.4049,27.0996 22.8999,25.7101 "/>
    <polygon id="123456789101112131415161718192021222324252627282930313233343536373839404142434445464748" class="fil48" points="22.4524,24.7673 25.232,25.7573 24.242,28.5369 21.4624,27.5469 22.4524,24.7673 23.3475,26.6524 23.3472,26.6524 23.3472,26.6521 23.3475,26.6521 23.3475,26.6524 "/>
    <polygon id="12345678910111213141516171819202122232425262728293031323334353637383940414243444546474849" class="fil49" points="22.8999,25.7098 24.2894,26.2048 23.7945,27.5943 22.4049,27.0994 22.8999,25.7098 "/>
   </g>
   <path id="1234567891011121314151617181920212223242526272829303132333435363738394041424344454647484950" class="fil50 str0" d="M25.3398 1.26074l20.2064 1.95674 -3.98546 41.1583 -40.4124 -3.91321 2.38278 -24.6068c0.881582,-9.10343 10.6956,-15.6713 21.809,-14.5951l0 0 -0.000275753 0z"/>
  </g>
  <g>
   <g style="clip-path:url(#id1)">
    <polygon class="fil51" points="10.424,-2.50715 51.5722,12.1472 36.9178,53.2953 -4.23033,38.641 10.424,-2.50715 10.9543,-1.39062 50.4559,12.6777 36.3878,52.1788 -3.1138,38.1107 10.9543,-1.39062 "/>
    <polygon id="1" class="fil52" points="10.6893,-1.94902 51.014,12.4125 36.6525,52.7372 -3.6722,38.3757 10.6893,-1.94902 11.2193,-0.832498 49.8978,12.9425 36.1228,51.6207 -2.55568,37.8457 11.2193,-0.832498 "/>
    <polygon id="12" class="fil53" points="10.9543,-1.3909 50.4559,12.6775 36.3875,52.1791 -3.11408,38.1107 10.9543,-1.3909 11.4843,-0.274374 49.3397,13.2075 35.8578,51.0628 -1.99755,37.5807 11.4843,-0.274374 "/>
    <polygon id="123" class="fil54" points="11.219,-0.832774 49.8978,12.9422 36.1228,51.621 -2.55595,37.846 11.219,-0.832774 11.749,0.283474 48.7818,13.4725 35.5928,50.5047 -1.43971,37.316 11.749,0.283474 "/>
    <polygon id="1234" class="fil55" points="11.484,-0.274926 49.3399,13.2072 35.8578,51.0631 -1.99811,37.581 11.484,-0.274926 12.014,0.841598 48.2237,13.7375 35.3278,49.9469 -0.881858,37.0513 12.014,0.841598 "/>
    <polygon id="12345" class="fil56" points="11.749,0.283198 48.7818,13.4722 35.5928,50.505 -1.43998,37.316 11.749,0.283198 12.279,1.39945 47.6658,14.0022 35.0631,49.389 -0.323734,36.7863 12.279,1.39945 "/>
    <polygon id="123456" class="fil57" points="12.014,0.841323 48.2237,13.7372 35.3278,49.9469 -0.881858,37.051 12.014,0.841323 12.544,1.95757 47.1077,14.2672 34.7981,48.8309 0.23439,36.5213 12.544,1.95757 "/>
    <polygon id="1234567" class="fil58" points="12.2787,1.39917 47.6658,14.0019 35.0631,49.389 -0.32401,36.7863 12.2787,1.39917 12.809,2.51569 46.5496,14.5322 34.5331,48.2731 0.792238,36.2563 12.809,2.51569 "/>
    <polygon id="12345678" class="fil59" points="12.5437,1.9573 47.1077,14.2669 34.7981,48.8309 0.234114,36.5213 12.5437,1.9573 13.0737,3.07354 45.9917,14.7972 34.2681,47.7149 1.35036,35.9916 13.0737,3.07354 "/>
    <polygon id="123456789" class="fil60" points="12.8087,2.51514 46.5499,14.5319 34.5331,48.2731 0.791963,36.2563 12.8087,2.51514 13.3387,3.63167 45.4336,15.0619 34.0034,47.1568 1.90849,35.7266 13.3387,3.63167 "/>
    <polygon id="12345678910" class="fil61" points="13.0737,3.07327 45.9917,14.7969 34.2681,47.7149 1.35009,35.9913 13.0737,3.07327 13.6037,4.18979 44.8755,15.3269 33.7384,46.599 2.46634,35.4616 13.6037,4.18979 "/>
    <polygon id="1234567891011" class="fil62" points="13.3385,3.63139 45.4336,15.0616 34.0034,47.1568 1.90821,35.7266 13.3385,3.63139 13.8687,4.74764 44.3176,15.5919 33.4734,46.0408 3.02446,35.1966 13.8687,4.74764 "/>
    <polygon id="123456789101112" class="fil63" points="13.6034,4.18924 44.8758,15.3266 33.7384,46.599 2.46606,35.4616 13.6034,4.18924 14.1334,5.30576 43.7595,15.8569 33.2084,45.4827 3.58231,34.9318 14.1334,5.30576 "/>
    <polygon id="12345678910111213" class="fil64" points="13.8684,4.74736 44.3176,15.5916 33.4734,46.0408 3.02418,35.1966 13.8684,4.74736 14.3984,5.86361 43.2017,16.1216 32.9437,44.9249 4.14043,34.6668 14.3984,5.86361 "/>
    <polygon id="1234567891011121314" class="fil65" points="14.1334,5.30549 43.7595,15.8566 33.2084,45.4827 3.58231,34.9316 14.1334,5.30549 14.6634,6.42174 42.6436,16.3866 32.6787,44.3667 4.69856,34.4018 14.6634,6.42174 "/>
    <polygon id="123456789101112131415" class="fil66" points="14.3982,5.86334 43.2017,16.1213 32.9437,44.9249 4.14016,34.6668 14.3982,5.86334 14.9284,6.97986 42.0854,16.6516 32.4137,43.8089 5.2564,34.1368 14.9284,6.97986 "/>
    <polygon id="12345678910111213141516" class="fil67" points="14.6632,6.42146 42.6436,16.3863 32.6787,44.3667 4.69828,34.4018 14.6632,6.42146 15.1932,7.53771 41.5276,16.9166 32.1487,43.2508 5.81453,33.8721 15.1932,7.53771 "/>
    <polygon id="1234567891011121314151617" class="fil68" points="14.9282,6.97931 42.0857,16.6513 32.4137,43.8089 5.25613,34.1368 14.9282,6.97931 15.4582,8.09583 40.9695,17.1813 31.8839,42.6926 6.37265,33.6071 15.4582,8.09583 "/>
    <polygon id="123456789101112131415161718" class="fil69" points="15.1932,7.53743 41.5276,16.9163 32.1487,43.2508 5.81425,33.8718 15.1932,7.53743 15.7232,8.65396 40.4113,17.4463 31.6189,42.1348 6.9305,33.3421 15.7232,8.65396 "/>
    <polygon id="12345678910111213141516171819" class="fil70" points="15.4579,8.09556 40.9695,17.1811 31.8839,42.6926 6.37238,33.6071 15.4579,8.09556 15.9882,9.21181 39.8535,17.7113 31.3539,41.5767 7.48863,33.0771 15.9882,9.21181 "/>
    <polygon id="1234567891011121314151617181920" class="fil71" points="15.7229,8.65341 40.4116,17.4461 31.6189,42.1348 6.93023,33.3421 15.7229,8.65341 16.2529,9.76993 39.2954,17.9763 31.0889,41.0185 8.04647,32.8124 16.2529,9.76993 "/>
    <polygon id="123456789101112131415161718192021" class="fil72" points="15.9879,9.21153 39.8535,17.7111 31.3539,41.5767 7.48835,33.0771 15.9879,9.21153 16.5179,10.3278 38.7375,18.2411 30.824,40.4607 8.6046,32.5474 16.5179,10.3278 "/>
    <polygon id="12345678910111213141516171819202122" class="fil73" points="16.2529,9.76965 39.2954,17.9761 31.0889,41.0185 8.04647,32.8121 16.2529,9.76965 16.7829,10.8859 38.1794,18.5061 30.5592,39.9026 9.16272,32.2824 16.7829,10.8859 "/>
    <polygon id="1234567891011121314151617181920212223" class="fil74" points="16.5179,10.3275 38.7375,18.2411 30.824,40.4607 8.60432,32.5471 16.5179,10.3275 17.0479,11.444 37.6213,18.7711 30.2942,39.3447 9.72057,32.0174 17.0479,11.444 "/>
    <polygon id="123456789101112131415161718192021222324" class="fil75" points="16.7826,10.8856 38.1794,18.5058 30.5592,39.9026 9.16245,32.2824 16.7826,10.8856 17.3126,12.0019 37.0634,19.0361 30.0292,38.7866 10.2787,31.7527 17.3126,12.0019 "/>
    <polygon id="12345678910111213141516171819202122232425" class="fil76" points="17.0476,11.4435 37.6215,18.7708 30.2942,39.3447 9.72029,32.0174 17.0476,11.4435 17.5776,12.56 36.5053,19.3011 29.7642,38.2285 10.8368,31.4877 17.5776,12.56 "/>
    <polygon id="1234567891011121314151617181920212223242526" class="fil77" points="17.3126,12.0016 37.0634,19.0358 30.0292,38.7866 10.2784,31.7524 17.3126,12.0016 17.8426,13.1181 35.9472,19.5658 29.4995,37.6706 11.3947,31.2227 17.8426,13.1181 "/>
    <polygon id="123456789101112131415161718192021222324252627" class="fil78" points="17.5776,12.5597 36.5053,19.3008 29.7642,38.2285 10.8365,31.4874 17.5776,12.5597 18.1076,13.676 35.3893,19.8308 29.2345,37.1125 11.9528,30.9577 18.1076,13.676 "/>
    <polygon id="12345678910111213141516171819202122232425262728" class="fil79" points="17.8423,13.1176 35.9474,19.5655 29.4995,37.6706 11.3944,31.2227 17.8423,13.1176 18.3723,14.2341 34.8312,20.0958 28.9695,36.5544 12.5106,30.6927 18.3723,14.2341 "/>
    <polygon id="1234567891011121314151617181920212223242526272829" class="fil80" points="18.1073,13.6757 35.3893,19.8305 29.2345,37.1125 11.9525,30.9577 18.1073,13.6757 18.6373,14.7919 34.2733,20.3608 28.7045,35.9965 13.0688,30.428 18.6373,14.7919 "/>
    <polygon id="123456789101112131415161718192021222324252627282930" class="fil81" points="18.3723,14.2338 34.8312,20.0955 28.9695,36.5544 12.5106,30.6927 18.3723,14.2338 18.9023,15.3501 33.7152,20.6255 28.4398,35.4384 13.6269,30.163 18.9023,15.3501 "/>
    <polygon id="12345678910111213141516171819202122232425262728293031" class="fil82" points="18.6373,14.7917 34.2733,20.3605 28.7045,35.9965 13.0685,30.4277 18.6373,14.7917 19.1673,15.9082 33.1571,20.8905 28.1748,34.8806 14.1847,29.898 19.1673,15.9082 "/>
    <polygon id="1234567891011121314151617181920212223242526272829303132" class="fil83" points="18.902,15.3498 33.7152,20.6252 28.4398,35.4384 13.6266,30.163 18.902,15.3498 19.432,16.466 32.5992,21.1555 27.9098,34.3224 14.7429,29.633 19.432,16.466 "/>
    <polygon id="123456789101112131415161718192021222324252627282930313233" class="fil84" points="19.167,15.9076 33.1574,20.8902 28.1748,34.8806 14.1845,29.898 19.167,15.9076 19.697,17.0242 32.0411,21.4205 27.6448,33.7643 15.301,29.3682 19.697,17.0242 "/>
    <polygon id="12345678910111213141516171819202122232425262728293031323334" class="fil85" points="19.432,16.4658 32.5992,21.1552 27.9098,34.3224 14.7426,29.633 19.432,16.4658 19.962,17.5823 31.483,21.6852 27.3801,33.2065 15.8588,29.1033 19.962,17.5823 "/>
    <polygon id="1234567891011121314151617181920212223242526272829303132333435" class="fil86" points="19.697,17.0239 32.0411,21.4202 27.6448,33.7643 15.3007,29.368 19.697,17.0239 20.227,18.1401 30.9252,21.9502 27.1151,32.6483 16.417,28.8383 20.227,18.1401 "/>
    <polygon id="123456789101112131415161718192021222324252627282930313233343536" class="fil87" points="19.9618,17.5817 31.4833,21.6849 27.3801,33.2065 15.8586,29.1033 19.9618,17.5817 20.492,18.6983 30.367,22.2152 26.8501,32.0902 16.9748,28.5733 20.492,18.6983 "/>
    <polygon id="12345678910111213141516171819202122232425262728293031323334353637" class="fil88" points="20.2268,18.1399 30.9252,21.9499 27.1151,32.6483 16.4167,28.8383 20.2268,18.1399 20.7568,19.2561 29.8092,22.4802 26.5851,31.5324 17.5329,28.3085 20.7568,19.2561 "/>
    <polygon id="1234567891011121314151617181920212223242526272829303132333435363738" class="fil89" points="20.4918,18.698 30.367,22.2149 26.8501,32.0902 16.9748,28.5733 20.4918,18.698 21.0218,19.8142 29.2511,22.7449 26.3204,30.9742 18.0911,28.0435 21.0218,19.8142 "/>
    <polygon id="123456789101112131415161718192021222324252627282930313233343536373839" class="fil90" points="20.7568,19.2558 29.8092,22.4799 26.5851,31.5324 17.5327,28.3083 20.7568,19.2558 21.2868,20.3724 28.6929,23.0099 26.0554,30.4164 18.6489,27.7785 21.2868,20.3724 "/>
    <polygon id="12345678910111213141516171819202122232425262728293031323334353637383940" class="fil91" points="21.0215,19.814 29.2511,22.7447 26.3204,30.9742 18.0908,28.0435 21.0215,19.814 21.5518,20.9302 28.1351,23.2749 25.7904,29.8583 19.207,27.5135 21.5518,20.9302 "/>
    <polygon id="1234567891011121314151617181920212223242526272829303132333435363738394041" class="fil92" points="21.2865,20.3718 28.6932,23.0097 26.0554,30.4164 18.6486,27.7785 21.2865,20.3718 21.8165,21.4883 27.577,23.5399 25.5254,29.3001 19.7652,27.2488 21.8165,21.4883 "/>
    <polygon id="123456789101112131415161718192021222324252627282930313233343536373839404142" class="fil93" points="21.5515,20.9299 28.1351,23.2747 25.7904,29.8583 19.2068,27.5135 21.5515,20.9299 22.0815,22.0465 27.0188,23.8047 25.2606,28.7423 20.323,26.9838 22.0815,22.0465 "/>
    <polygon id="12345678910111213141516171819202122232425262728293031323334353637383940414243" class="fil94" points="21.8165,21.4881 27.577,23.5397 25.5254,29.3001 19.7649,27.2485 21.8165,21.4881 22.3465,22.6043 26.461,24.0697 24.9956,28.1842 20.8811,26.7188 22.3465,22.6043 "/>
    <polygon id="1234567891011121314151617181920212223242526272829303132333435363738394041424344" class="fil95" points="22.0812,22.0459 27.0191,23.8044 25.2606,28.7423 20.3227,26.9838 22.0812,22.0459 22.6115,23.1624 25.9029,24.3347 24.7306,27.626 21.439,26.4538 22.6115,23.1624 "/>
    <polygon id="123456789101112131415161718192021222324252627282930313233343536373839404142434445" class="fil96" points="22.3462,22.604 26.461,24.0694 24.9956,28.1842 20.8808,26.7188 22.3462,22.604 22.8762,23.7203 25.345,24.5997 24.4656,27.0682 21.9971,26.1891 22.8762,23.7203 "/>
    <polygon id="12345678910111213141516171819202122232425262728293031323334353637383940414243444546" class="fil97" points="22.6112,23.1622 25.9029,24.3344 24.7306,27.626 21.439,26.4538 22.6112,23.1622 23.1412,24.2784 24.7869,24.8644 24.2009,26.5101 22.5552,25.9241 23.1412,24.2784 "/>
    <polygon id="1234567891011121314151617181920212223242526272829303132333435363738394041424344454647" class="fil98" points="22.8762,23.72 25.345,24.5994 24.4656,27.0682 21.9968,26.1888 22.8762,23.72 23.4062,24.8365 24.2288,25.1294 23.9359,25.9522 23.1131,25.6591 23.4062,24.8365 "/>
    <polygon id="123456789101112131415161718192021222324252627282930313233343536373839404142434445464748" class="fil99" points="23.1409,24.2781 24.7869,24.8641 24.2009,26.5101 22.5549,25.9241 23.1409,24.2781 23.6712,25.3944 23.6709,25.3944 23.6709,25.3941 23.6712,25.3941 23.6712,25.3944 "/>
    <polygon id="12345678910111213141516171819202122232425262728293031323334353637383940414243444546474849" class="fil100" points="23.4059,24.836 24.229,25.1291 23.9359,25.9522 23.1128,25.6591 23.4059,24.836 "/>
   </g>
   <path id="1234567891011121314151617181920212223242526272829303132333435363738394041424344454647484950" class="fil50 str1" d="M31.1543 12.4384c6.10628,4.41922 7.70785,12.6328 3.57569,18.3431 -4.13188,5.71085 -12.4354,6.7576 -18.5422,2.33894 -6.10683,-4.41922 -7.70785,-12.6328 -3.57569,-18.3431 4.13188,-5.71085 12.4345,-6.7576 18.5422,-2.33894zm-5.25337 7.25892c2.06015,1.491 2.73216,4.07977 1.50092,5.78199 -1.23151,1.70167 -3.90108,1.87264 -5.96095,0.382194 -2.06015,-1.491 -2.73244,-4.08004 -1.5012,-5.78199 1.23151,-1.70195 3.90135,-1.87264 5.96123,-0.382194z"/>
  </g>
  <g>
   <polygon class="fil101 str1" points="38.1366,20.5894 42.5379,22.082 41.8381,24.1458 37.4368,22.6528 "/>
   <polygon class="fil101 str1" points="32.7131,34.0894 34.2289,34.6034 38.8947,20.8464 37.3789,20.3324 "/>
   <path class="fil101 str1" d="M32.0453 30.0281c2.21568,0.751427 3.52523,2.79807 2.92381,4.57088 -0.601142,1.77254 -2.88548,2.60035 -5.10116,1.84892 -2.2154,-0.751427 -3.52495,-2.79807 -2.92353,-4.57061 0.601142,-1.77282 2.88548,-2.60063 5.10088,-1.8492z"/>
  </g>
  <g>
   <g style="clip-path:url(#id2)">
    <polygon class="fil102" points="10.012,14.3596 39.5559,24.8826 29.0329,54.4265 -0.51097,43.9035 10.012,14.3596 10.3926,15.1615 38.7543,25.2631 28.6527,53.6246 0.290919,43.5229 10.3926,15.1615 "/>
    <polygon id="1" class="fil103" points="10.2023,14.7605 39.155,25.0728 28.8427,54.0255 -0.110025,43.7132 10.2023,14.7605 10.5828,15.5621 38.3537,25.4534 28.4624,53.2242 0.691589,43.3327 10.5828,15.5621 "/>
    <polygon id="12" class="fil104" points="10.3923,15.1612 38.7543,25.2628 28.6527,53.6249 0.290644,43.5232 10.3923,15.1612 10.7728,15.9625 37.9533,25.6437 28.2724,52.8235 1.09198,43.1427 10.7728,15.9625 "/>
    <polygon id="123" class="fil105" points="10.5826,15.5616 38.3539,25.4531 28.4624,53.2245 0.691037,43.3329 10.5826,15.5616 10.9631,16.3635 37.5523,25.8339 28.0821,52.4226 1.49293,42.9524 10.9631,16.3635 "/>
    <polygon id="1234" class="fil106" points="10.7728,15.9625 37.953,25.6434 28.2721,52.8235 1.09198,43.1427 10.7728,15.9625 11.1534,16.7641 37.1517,26.0239 27.8919,52.0222 1.8936,42.7621 11.1534,16.7641 "/>
    <polygon id="12345" class="fil107" points="10.9631,16.3632 37.5523,25.8336 28.0819,52.4229 1.49265,42.9524 10.9631,16.3632 11.3437,17.1645 36.7513,26.2142 27.7016,51.6215 2.29399,42.5719 11.3437,17.1645 "/>
    <polygon id="123456" class="fil108" points="11.1531,16.7636 37.1519,26.0236 27.8919,52.0225 1.89304,42.7624 11.1531,16.7636 11.5339,17.5655 36.3503,26.4045 27.5113,51.2206 2.69493,42.3816 11.5339,17.5655 "/>
    <polygon id="1234567" class="fil109" points="11.3437,17.1645 36.751,26.2142 27.7013,51.6215 2.29399,42.5719 11.3437,17.1645 11.7239,17.9661 35.9496,26.5947 27.3213,50.8202 3.0956,42.1916 11.7239,17.9661 "/>
    <polygon id="12345678" class="fil110" points="11.5336,17.5652 36.3503,26.4042 27.5113,51.2209 2.69466,42.3819 11.5336,17.5652 11.9142,18.3665 35.5493,26.7847 27.1311,50.4195 3.496,42.0013 11.9142,18.3665 "/>
    <polygon id="123456789" class="fil111" points="11.7239,17.9656 35.9499,26.5945 27.3211,50.8205 3.09505,42.1916 11.7239,17.9656 12.1045,18.7675 35.1483,26.975 26.9408,50.0186 3.89694,41.8111 12.1045,18.7675 "/>
    <polygon id="12345678910" class="fil112" points="11.9142,18.3665 35.549,26.7847 27.1308,50.4195 3.496,42.0013 11.9142,18.3665 12.2947,19.1681 34.7476,27.1653 26.7505,49.6182 4.29761,41.6208 12.2947,19.1681 "/>
    <polygon id="1234567891011" class="fil113" points="12.1045,18.7672 35.1483,26.975 26.9405,50.0188 3.89667,41.8111 12.1045,18.7672 12.4847,19.5685 34.3472,27.3555 26.5605,49.2175 4.698,41.4308 12.4847,19.5685 "/>
    <polygon id="123456789101112" class="fil114" points="12.2944,19.1679 34.7476,27.165 26.7505,49.6182 4.29734,41.6211 12.2944,19.1679 12.6753,19.9695 33.9463,27.5458 26.37,48.8166 5.09895,41.2402 12.6753,19.9695 "/>
    <polygon id="12345678910111213" class="fil115" points="12.4847,19.5685 34.347,27.3553 26.5603,49.2175 4.698,41.4308 12.4847,19.5685 12.8653,20.3702 33.5456,27.7358 26.18,48.4162 5.49962,41.0503 12.8653,20.3702 "/>
    <polygon id="1234567891011121314" class="fil116" points="12.675,19.9692 33.9463,27.5455 26.37,48.8168 5.09867,41.2405 12.675,19.9692 13.0555,20.7705 33.1452,27.9261 25.9897,48.0155 5.90001,40.86 13.0555,20.7705 "/>
    <polygon id="123456789101112131415" class="fil117" points="12.8653,20.3699 33.5456,27.7358 26.1797,48.4162 5.49934,41.0503 12.8653,20.3699 13.2458,21.1715 32.7443,28.1163 25.7995,47.6146 6.30096,40.6697 13.2458,21.1715 "/>
    <polygon id="12345678910111213141516" class="fil118" points="13.0555,20.7705 33.145,27.9261 25.9894,48.0155 5.90001,40.86 13.0555,20.7705 13.4361,21.5722 32.3436,28.3066 25.6092,47.2142 6.70163,40.4797 13.4361,21.5722 "/>
    <polygon id="1234567891011121314151617" class="fil119" points="13.2455,21.1712 32.7443,28.1161 25.7995,47.6148 6.30068,40.67 13.2455,21.1712 13.6261,21.9726 31.9432,28.4966 25.4189,46.8138 7.10202,40.2897 13.6261,21.9726 "/>
    <polygon id="123456789101112131415161718" class="fil120" points="13.4358,21.5719 32.3436,28.3063 25.6092,47.2142 6.70135,40.4797 13.4358,21.5719 13.8163,22.3735 31.5423,28.6871 25.2286,46.4128 7.50296,40.0995 13.8163,22.3735 "/>
    <polygon id="12345678910111213141516171819" class="fil121" points="13.6261,21.9726 31.943,28.4966 25.4189,46.8135 7.10202,40.2894 13.6261,21.9726 14.0066,22.7742 31.1416,28.8771 25.0387,46.0122 7.90363,39.9092 14.0066,22.7742 "/>
    <polygon id="1234567891011121314151617181920" class="fil122" points="13.8163,22.3732 31.5423,28.6869 25.2286,46.4128 7.50269,40.0992 13.8163,22.3732 14.1969,23.1746 30.7409,29.0674 24.8484,45.6118 8.30403,39.7189 14.1969,23.1746 "/>
    <polygon id="123456789101112131415161718192021" class="fil123" points="14.0063,22.7739 31.1416,28.8769 25.0387,46.0122 7.90336,39.9092 14.0063,22.7739 14.3871,23.5755 30.3403,29.2577 24.6581,45.2108 8.70497,39.5286 14.3871,23.5755 "/>
    <polygon id="12345678910111213141516171819202122" class="fil124" points="14.1969,23.1746 30.7409,29.0674 24.8481,45.6115 8.30403,39.7186 14.1969,23.1746 14.5771,23.9762 29.9396,29.4479 24.4678,44.8101 9.10564,39.3387 14.5771,23.9762 "/>
    <polygon id="1234567891011121314151617181920212223" class="fil125" points="14.3869,23.5752 30.3403,29.2574 24.6581,45.2108 8.7047,39.5286 14.3869,23.5752 14.7674,24.3766 29.5389,29.6379 24.2778,44.4098 9.50603,39.1484 14.7674,24.3766 "/>
    <polygon id="123456789101112131415161718192021222324" class="fil126" points="14.5771,23.9759 29.9396,29.4477 24.4678,44.8101 9.10537,39.3384 14.5771,23.9759 14.9574,24.7772 29.1385,29.8282 24.0876,44.0091 9.9067,38.9581 14.9574,24.7772 "/>
    <polygon id="12345678910111213141516171819202122232425" class="fil127" points="14.7671,24.3763 29.5392,29.6377 24.2778,44.4098 9.50576,39.1484 14.7671,24.3763 15.1479,25.1782 28.7376,30.0185 23.8973,43.6081 10.3076,38.7678 15.1479,25.1782 "/>
    <polygon id="1234567891011121314151617181920212223242526" class="fil128" points="14.9574,24.7772 29.1383,29.8279 24.0876,44.0088 9.9067,38.9581 14.9574,24.7772 15.3379,25.5789 28.3369,30.2087 23.707,43.2077 10.708,38.5778 15.3379,25.5789 "/>
    <polygon id="123456789101112131415161718192021222324252627" class="fil129" points="15.1477,25.1779 28.7376,30.0182 23.8973,43.6081 10.3074,38.7678 15.1477,25.1779 15.5282,25.9792 27.9365,30.3987 23.517,42.8071 11.1087,38.3876 15.5282,25.9792 "/>
    <polygon id="12345678910111213141516171819202122232425262728" class="fil130" points="15.3379,25.5783 28.3372,30.2085 23.707,43.2077 10.7078,38.5776 15.3379,25.5783 15.7185,26.3802 27.5356,30.589 23.3268,42.4061 11.5097,38.1973 15.7185,26.3802 "/>
    <polygon id="1234567891011121314151617181920212223242526272829" class="fil131" points="15.5282,25.9792 27.9363,30.3987 23.5168,42.8068 11.1087,38.3873 15.5282,25.9792 15.9087,26.7809 27.1349,30.7793 23.1365,42.0057 11.91,38.007 15.9087,26.7809 "/>
    <polygon id="123456789101112131415161718192021222324252627282930" class="fil132" points="15.7182,26.3799 27.5356,30.5887 23.3268,42.4061 11.5094,38.1973 15.7182,26.3799 16.0987,27.1813 26.7345,30.9695 22.9462,41.6051 12.3107,37.817 16.0987,27.1813 "/>
    <polygon id="12345678910111213141516171819202122232425262728293031" class="fil133" points="15.9085,26.7803 27.1352,30.779 23.1365,42.0057 11.9098,38.007 15.9085,26.7803 16.289,27.5822 26.3336,31.1598 22.756,41.2041 12.7117,37.6265 16.289,27.5822 "/>
    <polygon id="1234567891011121314151617181920212223242526272829303132" class="fil134" points="16.0987,27.1813 26.7343,30.9693 22.9462,41.6048 12.3107,37.8168 16.0987,27.1813 16.4793,27.9829 25.9329,31.3498 22.566,40.8037 13.1121,37.4365 16.4793,27.9829 "/>
    <polygon id="123456789101112131415161718192021222324252627282930313233" class="fil135" points="16.289,27.5819 26.3336,31.1595 22.756,41.2041 12.7114,37.6265 16.289,27.5819 16.6695,28.3833 25.5325,31.5401 22.3757,40.4031 13.5127,37.2462 16.6695,28.3833 "/>
    <polygon id="12345678910111213141516171819202122232425262728293031323334" class="fil136" points="16.479,27.9823 25.9332,31.3495 22.566,40.8037 13.1118,37.4365 16.479,27.9823 16.8598,28.7842 25.1316,31.7304 22.1854,40.0021 13.9137,37.056 16.8598,28.7842 "/>
    <polygon id="1234567891011121314151617181920212223242526272829303132333435" class="fil137" points="16.6695,28.3833 25.5322,31.5401 22.3754,40.4028 13.5127,37.246 16.6695,28.3833 17.0498,29.1849 24.7309,31.9206 21.9952,39.6017 14.3141,36.8657 17.0498,29.1849 "/>
    <polygon id="123456789101112131415161718192021222324252627282930313233343536" class="fil138" points="16.8595,28.7839 25.1316,31.7301 22.1854,40.0021 13.9134,37.056 16.8595,28.7839 17.2401,29.5853 24.3305,32.1106 21.8052,39.2011 14.7147,36.6757 17.2401,29.5853 "/>
    <polygon id="12345678910111213141516171819202122232425262728293031323334353637" class="fil139" points="17.0498,29.1843 24.7312,31.9203 21.9952,39.6017 14.3138,36.8657 17.0498,29.1843 17.4303,29.9862 23.9296,32.3012 21.6146,38.8001 15.1157,36.4854 17.4303,29.9862 "/>
    <polygon id="1234567891011121314151617181920212223242526272829303132333435363738" class="fil140" points="17.2401,29.5853 24.3302,32.1106 21.8049,39.2008 14.7147,36.6754 17.2401,29.5853 17.6206,30.3869 23.5289,32.4912 21.4246,38.3997 15.5161,36.2952 17.6206,30.3869 "/>
    <polygon id="123456789101112131415161718192021222324252627282930313233343536373839" class="fil141" points="17.4303,29.9859 23.9296,32.3009 21.6146,38.8001 15.1154,36.4852 17.4303,29.9859 17.8106,30.7873 23.1285,32.6814 21.2344,37.999 15.9167,36.1052 17.8106,30.7873 "/>
    <polygon id="12345678910111213141516171819202122232425262728293031323334353637383940" class="fil142" points="17.6203,30.3863 23.5292,32.4909 21.4246,38.3997 15.5158,36.2952 17.6203,30.3863 18.0012,31.1882 22.7276,32.8717 21.0441,37.5981 16.3177,35.9146 18.0012,31.1882 "/>
    <polygon id="1234567891011121314151617181920212223242526272829303132333435363738394041" class="fil143" points="17.8106,30.7873 23.1282,32.6811 21.2344,37.9988 15.9167,36.1049 17.8106,30.7873 18.1912,31.5889 22.3269,33.062 20.8538,37.1977 16.7181,35.7246 18.1912,31.5889 "/>
    <polygon id="123456789101112131415161718192021222324252627282930313233343536373839404142" class="fil144" points="18.0009,31.1879 22.7276,32.8714 21.0441,37.5981 16.3174,35.9146 18.0009,31.1879 18.3814,31.9893 21.9265,33.252 20.6638,36.797 17.1187,35.5344 18.3814,31.9893 "/>
    <polygon id="12345678910111213141516171819202122232425262728293031323334353637383940414243" class="fil145" points="18.1912,31.5883 22.3272,33.0617 20.8538,37.1977 16.7178,35.7244 18.1912,31.5883 18.5717,32.3902 21.5256,33.4422 20.4736,36.3961 17.5197,35.3441 18.5717,32.3902 "/>
    <polygon id="1234567891011121314151617181920212223242526272829303132333435363738394041424344" class="fil146" points="18.3814,31.9893 21.9262,33.252 20.6636,36.7968 17.1187,35.5341 18.3814,31.9893 18.762,32.7909 21.1249,33.6325 20.2833,35.9957 17.9201,35.1538 18.762,32.7909 "/>
    <polygon id="123456789101112131415161718192021222324252627282930313233343536373839404142434445" class="fil147" points="18.5714,32.39 21.5256,33.4419 20.4736,36.3961 17.5194,35.3441 18.5714,32.39 18.952,33.1913 20.7245,33.8228 20.093,35.595 18.3208,34.9638 18.952,33.1913 "/>
    <polygon id="12345678910111213141516171819202122232425262728293031323334353637383940414243444546" class="fil148" points="18.7617,32.7903 21.1252,33.6322 20.2833,35.9957 17.9198,35.1538 18.7617,32.7903 19.1422,33.5922 20.3236,34.013 19.9028,35.1941 18.7217,34.7736 19.1422,33.5922 "/>
    <polygon id="1234567891011121314151617181920212223242526272829303132333435363738394041424344454647" class="fil149" points="18.952,33.1913 20.7242,33.8225 20.093,35.5948 18.3208,34.9636 18.952,33.1913 19.3325,33.9929 19.9229,34.203 19.7128,34.7937 19.1221,34.5833 19.3325,33.9929 "/>
    <polygon id="123456789101112131415161718192021222324252627282930313233343536373839404142434445464748" class="fil150" points="19.1422,33.592 20.3236,34.0128 19.9028,35.1941 18.7214,34.7733 19.1422,33.592 19.5228,34.3933 19.5225,34.3933 19.5225,34.393 19.5228,34.393 19.5228,34.3933 "/>
    <polygon id="12345678910111213141516171819202122232425262728293031323334353637383940414243444546474849" class="fil151" points="19.3322,33.9924 19.9232,34.2028 19.7128,34.7937 19.1218,34.5833 19.3322,33.9924 "/>
   </g>
  </g>
 </g>
</svg>
