<?xml version="1.0" encoding="UTF-8"?>
<!DOCTYPE svg PUBLIC "-//W3C//DTD SVG 1.1//EN" "http://www.w3.org/Graphics/SVG/1.1/DTD/svg11.dtd">
<!-- Creator: CorelDRAW -->
<svg xmlns="http://www.w3.org/2000/svg" xml:space="preserve" width="300px" height="300px" style="shape-rendering:geometricPrecision; text-rendering:geometricPrecision; image-rendering:optimizeQuality; fill-rule:evenodd; clip-rule:evenodd"
viewBox="0 0 31.9327 28.6051"
 xmlns:xlink="http://www.w3.org/1999/xlink">
 <defs>
  <style type="text/css">
   <![CDATA[
    .str0 {stroke:#1F1A17;stroke-width:1.52745;stroke-linecap:round;stroke-linejoin:round}
    .fil0 {fill:#DA251D}
    .fil1 {fill:white}
    .fil2 {fill:#1F1A17;fill-rule:nonzero}
   ]]>
  </style>
 </defs>
 <g id="Слой_x0020_1">
  <metadata id="CorelCorpID_0Corel-Layer"/>
  <path class="fil0 str0" d="M14.0572 0.763767l13.2934 0 0 27.0776 -26.5869 0 0 -16.1884c0,-5.98908 5.98204,-10.8892 13.2935,-10.8892l-4.023e-005 4.023e-005z"/>
  <polygon class="fil1 str0" points="25.511,7.52253 31.1694,8.39355 30.3299,12.2822 27.0789,27.8413 4.43914,24.3468 8.52949,4.89905 "/>
  <path class="fil2" d="M7.55701 16.5989l2.98977 -6.67581 2.518 1.12769c0.442973,0.198374 0.772054,0.371926 0.98644,0.518323 0.303576,0.201271 0.532042,0.428611 0.685399,0.682019 0.152472,0.251196 0.234501,0.547289 0.246529,0.882968 0.0113046,0.337208 -0.0576094,0.670232 -0.205857,1.00128 -0.254093,0.567364 -0.650197,0.968417 -1.18691,1.20018 -0.537594,0.229512 -1.27879,0.134529 -2.22227,-0.288007l-1.71283 -0.767106 -1.21539 2.71384 -0.882888 -0.395381zm2.45121 -3.10648l1.72683 0.773341c0.570421,0.255501 1.02341,0.331455 1.35817,0.225771 0.334714,-0.105765 0.588082,-0.350605 0.760709,-0.736088 0.125316,-0.279759 0.162529,-0.550427 0.11019,-0.812767 -0.0523392,-0.262259 -0.178863,-0.47568 -0.381863,-0.643117 -0.131834,-0.105684 -0.396346,-0.24842 -0.797359,-0.428007l-1.70817 -0.765014 -1.06851 2.38588zm3.76915 5.89229l2.98977 -6.67581 2.29882 1.02953c0.519168,0.232529 0.900911,0.442651 1.14587,0.628916 0.343403,0.258277 0.5981,0.564548 0.765537,0.915715 0.217644,0.455726 0.311984,0.953331 0.278673,1.4945 -0.0318219,0.541818 -0.181437,1.1093 -0.448042,1.70459 -0.226937,0.506697 -0.487185,0.929434 -0.782273,1.26753 -0.293558,0.338777 -0.589812,0.596128 -0.891175,0.769037 -0.299834,0.173633 -0.592387,0.285191 -0.878543,0.332461 -0.285271,0.0495231 -0.601157,0.0423622 -0.94617,-0.0206782 -0.346501,-0.0637646 -0.720721,-0.186547 -1.12326,-0.366857l-2.40921 -1.07893zm1.23579 -0.392645l1.42531 0.638289c0.439875,0.197006 0.8046,0.311823 1.09172,0.341553 0.287122,0.0296495 0.537594,0.00374139 0.753629,-0.0786497 0.303133,-0.114293 0.593031,-0.324093 0.8676,-0.624732 0.275294,-0.302168 0.525766,-0.7031 0.75202,-1.20831 0.312547,-0.69783 0.437662,-1.28559 0.376955,-1.76256 -0.0615921,-0.479139 -0.227742,-0.854003 -0.498611,-1.12829 -0.195196,-0.197529 -0.557347,-0.413886 -1.08114,-0.648468l-1.40354 -0.628554 -2.28394 5.09972zm5.54414 3.42904l2.98977 -6.67581 4.50439 2.01729 -0.352938 0.788066 -3.61998 -1.62123 -0.925813 2.06726 3.13191 1.40262 -0.352938 0.788066 -3.13191 -1.40266 -1.35808 3.03246 -0.884417 -0.396064z"/>
 </g>
</svg>
